<svg width="140" height="100" viewBox="0 0 140 100" fill="none" xmlns="http://www.w3.org/2000/svg">
<g clip-path="url(#clip0_190_11160)">
<path d="M109.05 97.7105C109.05 97.7105 109.02 97.7205 109.02 97.7405C109.02 97.7605 109.03 97.7705 109.05 97.7705C109.07 97.7705 109.08 97.7605 109.08 97.7405C109.08 97.7205 109.07 97.7105 109.05 97.7105Z" fill="black"/>
<path d="M103.9 97.7003C103.9 97.7003 103.86 97.7203 103.86 97.7403C103.86 97.7603 103.88 97.7803 103.9 97.7803C103.92 97.7803 103.94 97.7603 103.94 97.7403C103.94 97.7203 103.92 97.7003 103.9 97.7003Z" fill="black"/>
<path d="M98.7601 97.6705C98.7601 97.6705 98.6901 97.7005 98.6901 97.7405C98.6901 97.7805 98.7201 97.8105 98.7601 97.8105C98.8001 97.8105 98.8301 97.7805 98.8301 97.7405C98.8301 97.7005 98.8001 97.6705 98.7601 97.6705Z" fill="black"/>
<path d="M93.62 97.6501C93.62 97.6501 93.53 97.6901 93.53 97.7401C93.53 97.7901 93.57 97.8301 93.62 97.8301C93.67 97.8301 93.71 97.7901 93.71 97.7401C93.71 97.6901 93.67 97.6501 93.62 97.6501Z" fill="black"/>
<path d="M88.4696 97.6501C88.4696 97.6501 88.3796 97.6901 88.3796 97.7401C88.3796 97.7901 88.4196 97.8301 88.4696 97.8301C88.5196 97.8301 88.5596 97.7901 88.5596 97.7401C88.5596 97.6901 88.5196 97.6501 88.4696 97.6501Z" fill="black"/>
<path d="M83.3299 97.6501C83.3299 97.6501 83.2399 97.6901 83.2399 97.7401C83.2399 97.7901 83.2799 97.8301 83.3299 97.8301C83.3799 97.8301 83.4099 97.7901 83.4099 97.7401C83.4099 97.6901 83.3699 97.6501 83.3299 97.6501Z" fill="black"/>
<path d="M78.19 97.6705C78.19 97.6705 78.12 97.7005 78.12 97.7405C78.12 97.7805 78.15 97.8105 78.19 97.8105C78.23 97.8105 78.26 97.7805 78.26 97.7405C78.26 97.7005 78.23 97.6705 78.19 97.6705Z" fill="black"/>
<path d="M73.0498 97.7003C73.0498 97.7003 73.0098 97.7203 73.0098 97.7403C73.0098 97.7603 73.0298 97.7803 73.0498 97.7803C73.0698 97.7803 73.0898 97.7603 73.0898 97.7403C73.0898 97.7203 73.0698 97.7003 73.0498 97.7003Z" fill="black"/>
<path d="M67.8999 97.73C67.8999 97.73 67.8899 97.73 67.8899 97.74C67.8899 97.75 67.8899 97.75 67.8999 97.75C67.9099 97.75 67.9099 97.75 67.9099 97.74C67.9099 97.73 67.9099 97.73 67.8999 97.73Z" fill="black"/>
<path d="M116.76 92.5499C116.76 92.5499 116.72 92.5699 116.72 92.5899C116.72 92.6099 116.74 92.6299 116.76 92.6299C116.78 92.6299 116.8 92.6099 116.8 92.5899C116.8 92.5699 116.78 92.5499 116.76 92.5499Z" fill="black"/>
<path d="M111.62 92.5104C111.62 92.5104 111.53 92.5504 111.53 92.6004C111.53 92.6504 111.57 92.6904 111.62 92.6904C111.67 92.6904 111.71 92.6504 111.71 92.6004C111.71 92.5504 111.67 92.5104 111.62 92.5104Z" fill="black"/>
<path d="M106.47 92.4505C106.39 92.4505 106.33 92.5105 106.33 92.5905C106.33 92.6705 106.39 92.7305 106.47 92.7305C106.55 92.7305 106.61 92.6705 106.61 92.5905C106.61 92.5105 106.55 92.4505 106.47 92.4505Z" fill="black"/>
<path d="M101.33 92.3998C101.22 92.3998 101.13 92.4898 101.13 92.5998C101.13 92.7098 101.22 92.7998 101.33 92.7998C101.44 92.7998 101.53 92.7098 101.53 92.5998C101.53 92.4898 101.44 92.3998 101.33 92.3998Z" fill="black"/>
<path d="M96.1897 92.3598C96.0597 92.3598 95.9497 92.4698 95.9497 92.5998C95.9497 92.7298 96.0597 92.8398 96.1897 92.8398C96.3197 92.8398 96.4297 92.7298 96.4297 92.5998C96.4297 92.4698 96.3197 92.3598 96.1897 92.3598Z" fill="black"/>
<path d="M91.0503 92.3301C90.9003 92.3301 90.7803 92.4501 90.7803 92.6001C90.7803 92.7501 90.9003 92.8701 91.0503 92.8701C91.2003 92.8701 91.3203 92.7501 91.3203 92.6001C91.3203 92.4501 91.2003 92.3301 91.0503 92.3301Z" fill="black"/>
<path d="M85.9004 92.3096C85.7404 92.3096 85.6104 92.4396 85.6104 92.5996C85.6104 92.7596 85.7404 92.8896 85.9004 92.8896C86.0604 92.8896 86.1904 92.7596 86.1904 92.5996C86.1904 92.4396 86.0604 92.3096 85.9004 92.3096Z" fill="black"/>
<path d="M80.76 92.3096C80.6 92.3096 80.47 92.4396 80.47 92.5996C80.47 92.7596 80.6 92.8896 80.76 92.8896C80.92 92.8896 81.05 92.7596 81.05 92.5996C81.05 92.4396 80.92 92.3096 80.76 92.3096Z" fill="black"/>
<path d="M75.6199 92.3404C75.4799 92.3404 75.3599 92.4504 75.3599 92.6004C75.3599 92.7504 75.4799 92.8604 75.6199 92.8604C75.7599 92.8604 75.8799 92.7504 75.8799 92.6004C75.8799 92.4504 75.7699 92.3404 75.6199 92.3404Z" fill="black"/>
<path d="M70.4697 92.3798C70.3497 92.3798 70.2597 92.4798 70.2597 92.5898C70.2597 92.6998 70.3597 92.7998 70.4697 92.7998C70.5797 92.7998 70.6797 92.6998 70.6797 92.5898C70.6797 92.4798 70.5797 92.3798 70.4697 92.3798Z" fill="black"/>
<path d="M65.3302 92.4398C65.2402 92.4398 65.1702 92.5098 65.1702 92.5998C65.1702 92.6898 65.2402 92.7598 65.3302 92.7598C65.4202 92.7598 65.4902 92.6898 65.4902 92.5998C65.4902 92.5098 65.4202 92.4398 65.3302 92.4398Z" fill="black"/>
<path d="M60.19 92.5002C60.14 92.5002 60.09 92.5402 60.09 92.6002C60.09 92.6602 60.14 92.7002 60.19 92.7002C60.24 92.7002 60.29 92.6602 60.29 92.6002C60.29 92.5402 60.25 92.5002 60.19 92.5002Z" fill="black"/>
<path d="M55.0503 92.5402C55.0503 92.5402 54.9903 92.5702 54.9903 92.6002C54.9903 92.6302 55.0203 92.6602 55.0503 92.6602C55.0803 92.6602 55.1104 92.6302 55.1104 92.6002C55.1104 92.5702 55.0803 92.5402 55.0503 92.5402Z" fill="black"/>
<path d="M49.8999 92.5796C49.8999 92.5796 49.8899 92.5796 49.8899 92.5896C49.8899 92.5896 49.8899 92.5996 49.8999 92.5996C49.9099 92.5996 49.9099 92.5996 49.9099 92.5896C49.9099 92.5896 49.9099 92.5796 49.8999 92.5796Z" fill="black"/>
<path d="M129.62 87.44C129.62 87.44 129.61 87.44 129.61 87.45C129.61 87.46 129.61 87.46 129.62 87.46C129.63 87.46 129.63 87.46 129.63 87.45C129.63 87.44 129.63 87.44 129.62 87.44Z" fill="black"/>
<path d="M124.47 87.3805C124.431 87.3805 124.4 87.4118 124.4 87.4505C124.4 87.4892 124.431 87.5205 124.47 87.5205C124.509 87.5205 124.54 87.4892 124.54 87.4505C124.54 87.4118 124.509 87.3805 124.47 87.3805Z" fill="black"/>
<path d="M119.33 87.3001C119.24 87.3001 119.17 87.3701 119.17 87.4601C119.17 87.5501 119.24 87.6201 119.33 87.6201C119.42 87.6201 119.49 87.5501 119.49 87.4601C119.49 87.3701 119.42 87.3001 119.33 87.3001Z" fill="black"/>
<path d="M114.19 87.2104C114.06 87.2104 113.95 87.3204 113.95 87.4504C113.95 87.5804 114.06 87.6904 114.19 87.6904C114.32 87.6904 114.43 87.5804 114.43 87.4504C114.43 87.3204 114.32 87.2104 114.19 87.2104Z" fill="black"/>
<path d="M109.05 87.11C108.86 87.11 108.71 87.26 108.71 87.45C108.71 87.64 108.86 87.79 109.05 87.79C109.24 87.79 109.39 87.64 109.39 87.45C109.39 87.26 109.24 87.11 109.05 87.11Z" fill="black"/>
<path d="M103.9 87.0199C103.663 87.0199 103.47 87.2124 103.47 87.4499C103.47 87.6874 103.663 87.8799 103.9 87.8799C104.138 87.8799 104.33 87.6874 104.33 87.4499C104.33 87.2124 104.138 87.0199 103.9 87.0199Z" fill="black"/>
<path d="M98.76 86.96C98.48 86.96 98.26 87.18 98.26 87.46C98.26 87.74 98.48 87.96 98.76 87.96C99.04 87.96 99.26 87.74 99.26 87.46C99.26 87.18 99.04 86.96 98.76 86.96Z" fill="black"/>
<path d="M93.6197 86.9005C93.3097 86.9005 93.0597 87.1505 93.0597 87.4605C93.0597 87.7705 93.3097 88.0205 93.6197 88.0205C93.9297 88.0205 94.1797 87.7705 94.1797 87.4605C94.1797 87.1505 93.9297 86.9005 93.6197 86.9005Z" fill="black"/>
<path d="M88.47 86.8703C88.15 86.8703 87.89 87.1303 87.89 87.4503C87.89 87.7703 88.15 88.0303 88.47 88.0303C88.79 88.0303 89.05 87.7703 89.05 87.4503C89.05 87.1303 88.79 86.8703 88.47 86.8703Z" fill="black"/>
<path d="M83.3304 86.8805C83.0156 86.8805 82.7604 87.1357 82.7604 87.4505C82.7604 87.7653 83.0156 88.0205 83.3304 88.0205C83.6452 88.0205 83.9004 87.7653 83.9004 87.4505C83.9004 87.1357 83.6452 86.8805 83.3304 86.8805Z" fill="black"/>
<path d="M78.1895 86.9102C77.8895 86.9102 77.6495 87.1502 77.6495 87.4502C77.6495 87.7502 77.8895 87.9902 78.1895 87.9902C78.4895 87.9902 78.7295 87.7502 78.7295 87.4502C78.7295 87.1502 78.4895 86.9102 78.1895 86.9102Z" fill="black"/>
<path d="M73.05 86.9697C72.78 86.9697 72.57 87.1897 72.57 87.4497C72.57 87.7097 72.79 87.9297 73.05 87.9297C73.31 87.9297 73.54 87.7097 73.54 87.4497C73.54 87.1897 73.32 86.9697 73.05 86.9697Z" fill="black"/>
<path d="M67.9001 87.0496C67.6791 87.0496 67.5001 87.2287 67.5001 87.4496C67.5001 87.6705 67.6791 87.8496 67.9001 87.8496C68.121 87.8496 68.3 87.6705 68.3 87.4496C68.3 87.2287 68.121 87.0496 67.9001 87.0496Z" fill="black"/>
<path d="M62.7603 87.1398C62.5903 87.1398 62.4503 87.2798 62.4503 87.4498C62.4503 87.6198 62.5903 87.7598 62.7603 87.7598C62.9303 87.7598 63.0703 87.6198 63.0703 87.4498C63.0703 87.2798 62.9303 87.1398 62.7603 87.1398Z" fill="black"/>
<path d="M57.6201 87.2402C57.5001 87.2402 57.4101 87.3402 57.4101 87.4502C57.4101 87.5602 57.5101 87.6602 57.6201 87.6602C57.7301 87.6602 57.8301 87.5602 57.8301 87.4502C57.8301 87.3402 57.7301 87.2402 57.6201 87.2402Z" fill="black"/>
<path d="M52.4701 87.3405C52.4101 87.3405 52.3601 87.3905 52.3601 87.4505C52.3601 87.5105 52.4101 87.5605 52.4701 87.5605C52.5301 87.5605 52.5801 87.5105 52.5801 87.4505C52.5801 87.3905 52.5301 87.3405 52.4701 87.3405Z" fill="black"/>
<path d="M47.3299 87.4102C47.3299 87.4102 47.2899 87.4302 47.2899 87.4502C47.2899 87.4702 47.3099 87.4902 47.3299 87.4902C47.3499 87.4902 47.3699 87.4702 47.3699 87.4502C47.3699 87.4302 47.3499 87.4102 47.3299 87.4102Z" fill="black"/>
<path d="M132.19 82.3003C132.19 82.3003 132.18 82.3003 132.18 82.3103C132.18 82.3103 132.18 82.3203 132.19 82.3203C132.19 82.3203 132.2 82.3203 132.2 82.3103C132.2 82.3103 132.2 82.3003 132.19 82.3003Z" fill="black"/>
<path d="M127.05 82.2399C127.05 82.2399 126.98 82.2699 126.98 82.3099C126.98 82.3499 127.01 82.3799 127.05 82.3799C127.09 82.3799 127.12 82.3499 127.12 82.3099C127.12 82.2699 127.09 82.2399 127.05 82.2399Z" fill="black"/>
<path d="M121.9 82.1395C121.81 82.1395 121.73 82.2195 121.73 82.3095C121.73 82.3995 121.81 82.4795 121.9 82.4795C121.99 82.4795 122.07 82.3995 122.07 82.3095C122.07 82.2195 121.99 82.1395 121.9 82.1395Z" fill="black"/>
<path d="M116.76 82.0104C116.59 82.0104 116.46 82.1404 116.46 82.3104C116.46 82.4804 116.59 82.6104 116.76 82.6104C116.93 82.6104 117.06 82.4804 117.06 82.3104C117.06 82.1404 116.93 82.0104 116.76 82.0104Z" fill="black"/>
<path d="M111.62 81.87C111.38 81.87 111.18 82.07 111.18 82.31C111.18 82.55 111.38 82.75 111.62 82.75C111.86 82.75 112.06 82.55 112.06 82.31C112.06 82.07 111.86 81.87 111.62 81.87Z" fill="black"/>
<path d="M106.47 81.7304C106.15 81.7304 105.89 81.9904 105.89 82.3104C105.89 82.6304 106.15 82.9004 106.47 82.9004C106.79 82.9004 107.05 82.6404 107.05 82.3104C107.05 81.9804 106.79 81.7304 106.47 81.7304Z" fill="black"/>
<path d="M101.33 81.6005C100.94 81.6005 100.62 81.9205 100.62 82.3105C100.62 82.7005 100.94 83.0205 101.33 83.0205C101.72 83.0205 102.04 82.7005 102.04 82.3105C102.04 81.9205 101.72 81.6005 101.33 81.6005Z" fill="black"/>
<path d="M96.1895 81.4796C95.7295 81.4796 95.3595 81.8496 95.3595 82.3096C95.3595 82.7696 95.7295 83.1396 96.1895 83.1396C96.6495 83.1396 97.0195 82.7696 97.0195 82.3096C97.0195 81.8496 96.6495 81.4796 96.1895 81.4796Z" fill="black"/>
<path d="M91.0499 81.41C90.5499 81.41 90.1499 81.81 90.1499 82.31C90.1499 82.81 90.5499 83.21 91.0499 83.21C91.5499 83.21 91.95 82.81 91.95 82.31C91.95 81.81 91.5499 81.41 91.0499 81.41Z" fill="black"/>
<path d="M85.8998 81.37C85.3798 81.37 84.9598 81.79 84.9598 82.31C84.9598 82.83 85.3798 83.25 85.8998 83.25C86.4198 83.25 86.8398 82.83 86.8398 82.31C86.8398 81.79 86.4198 81.37 85.8998 81.37Z" fill="black"/>
<path d="M80.7599 81.37C80.2399 81.37 79.8199 81.79 79.82 82.31C79.82 82.83 80.2399 83.25 80.7599 83.25C81.2799 83.25 81.7 82.83 81.7 82.31C81.7 81.79 81.2799 81.37 80.7599 81.37Z" fill="black"/>
<path d="M75.6195 81.41C75.1195 81.41 74.7195 81.81 74.7195 82.31C74.7195 82.81 75.1195 83.21 75.6195 83.21C76.1195 83.21 76.5195 82.81 76.5195 82.31C76.5195 81.81 76.1195 81.41 75.6195 81.41Z" fill="black"/>
<path d="M70.4701 81.4796C70.0101 81.4796 69.6401 81.8496 69.6401 82.3096C69.6401 82.7696 70.0101 83.1396 70.4701 83.1396C70.9301 83.1396 71.3 82.7696 71.3 82.3096C71.3 81.8496 70.9301 81.4796 70.4701 81.4796Z" fill="black"/>
<path d="M65.33 81.6005C64.94 81.6005 64.62 81.9205 64.62 82.3105C64.62 82.7005 64.94 83.0205 65.33 83.0205C65.72 83.0205 66.04 82.7005 66.04 82.3105C66.04 81.9205 65.72 81.6005 65.33 81.6005Z" fill="black"/>
<path d="M60.1895 81.7304C59.8695 81.7304 59.6095 81.9904 59.6095 82.3104C59.6095 82.6304 59.8695 82.9004 60.1895 82.9004C60.5095 82.9004 60.7695 82.6404 60.7695 82.3104C60.7695 81.9804 60.5095 81.7304 60.1895 81.7304Z" fill="black"/>
<path d="M55.0502 81.87C54.8102 81.87 54.6102 82.07 54.6102 82.31C54.6102 82.55 54.8102 82.75 55.0502 82.75C55.2902 82.75 55.4902 82.55 55.4902 82.31C55.4902 82.07 55.2902 81.87 55.0502 81.87Z" fill="black"/>
<path d="M49.9 82.0001C49.73 82.0001 49.59 82.1401 49.59 82.3101C49.59 82.4801 49.73 82.6201 49.9 82.6201C50.07 82.6201 50.21 82.4801 50.21 82.3101C50.21 82.1401 50.07 82.0001 49.9 82.0001Z" fill="black"/>
<path d="M44.76 82.13C44.66 82.13 44.58 82.21 44.58 82.31C44.58 82.41 44.66 82.5 44.76 82.5C44.86 82.5 44.95 82.42 44.95 82.31C44.95 82.2 44.87 82.13 44.76 82.13Z" fill="black"/>
<path d="M39.62 82.2302C39.62 82.2302 39.54 82.2702 39.54 82.3202C39.54 82.3702 39.58 82.4102 39.62 82.4102C39.66 82.4102 39.71 82.3702 39.71 82.3202C39.71 82.2702 39.67 82.2302 39.62 82.2302Z" fill="black"/>
<path d="M34.4695 82.3003C34.4695 82.3003 34.4595 82.3003 34.4595 82.3103C34.4595 82.3103 34.4595 82.3203 34.4695 82.3203C34.4795 82.3203 34.4795 82.3203 34.4795 82.3103C34.4795 82.3103 34.4795 82.3003 34.4695 82.3003Z" fill="black"/>
<path d="M134.76 77.1105C134.76 77.1105 134.7 77.1405 134.7 77.1705C134.7 77.2005 134.73 77.2305 134.76 77.2305C134.79 77.2305 134.82 77.2005 134.82 77.1705C134.82 77.1405 134.79 77.1105 134.76 77.1105Z" fill="black"/>
<path d="M129.62 77.0101C129.53 77.0101 129.46 77.0801 129.46 77.1701C129.46 77.2601 129.53 77.3301 129.62 77.3301C129.71 77.3301 129.78 77.2601 129.78 77.1701C129.78 77.0801 129.71 77.0101 129.62 77.0101Z" fill="black"/>
<path d="M124.47 76.8595C124.3 76.8595 124.16 76.9995 124.16 77.1695C124.16 77.3395 124.3 77.4795 124.47 77.4795C124.64 77.4795 124.78 77.3395 124.78 77.1695C124.78 76.9995 124.64 76.8595 124.47 76.8595Z" fill="black"/>
<path d="M119.33 76.6796C119.06 76.6796 118.84 76.8996 118.84 77.1596C118.84 77.4196 119.06 77.6396 119.33 77.6396C119.6 77.6396 119.81 77.4196 119.81 77.1596C119.81 76.8996 119.59 76.6796 119.33 76.6796Z" fill="black"/>
<path d="M114.19 76.5101C113.83 76.5101 113.53 76.8001 113.53 77.1701C113.53 77.5401 113.82 77.8301 114.19 77.8301C114.56 77.8301 114.85 77.5401 114.85 77.1701C114.85 76.8001 114.56 76.5101 114.19 76.5101Z" fill="black"/>
<path d="M109.05 76.3103C108.58 76.3103 108.19 76.6903 108.19 77.1703C108.19 77.6503 108.57 78.0303 109.05 78.0303C109.53 78.0303 109.91 77.6503 109.91 77.1703C109.91 76.6903 109.53 76.3103 109.05 76.3103Z" fill="black"/>
<path d="M103.9 76.1402C103.33 76.1402 102.87 76.6002 102.87 77.1702C102.87 77.7402 103.33 78.2002 103.9 78.2002C104.47 78.2002 104.93 77.7402 104.93 77.1702C104.93 76.6002 104.47 76.1402 103.9 76.1402Z" fill="black"/>
<path d="M98.7604 75.9896C98.1104 75.9896 97.5804 76.5196 97.5804 77.1696C97.5804 77.8196 98.1104 78.3496 98.7604 78.3496C99.4104 78.3496 99.9404 77.8196 99.9404 77.1696C99.9404 76.5196 99.4104 75.9896 98.7604 75.9896Z" fill="black"/>
<path d="M93.6197 75.8605C92.8997 75.8605 92.3097 76.4505 92.3097 77.1705C92.3097 77.8905 92.8997 78.4805 93.6197 78.4805C94.3397 78.4805 94.9297 77.8905 94.9297 77.1705C94.9297 76.4505 94.3397 75.8605 93.6197 75.8605Z" fill="black"/>
<path d="M88.4696 75.7898C87.7096 75.7898 87.0896 76.4098 87.0896 77.1698C87.0896 77.9298 87.7096 78.5498 88.4696 78.5498C89.2296 78.5498 89.8496 77.9298 89.8496 77.1698C89.8496 76.4098 89.2296 75.7898 88.4696 75.7898Z" fill="black"/>
<path d="M83.33 75.7898C82.57 75.7898 81.95 76.4098 81.95 77.1698C81.95 77.9298 82.57 78.5498 83.33 78.5498C84.09 78.5498 84.71 77.9298 84.71 77.1698C84.71 76.4098 84.09 75.7898 83.33 75.7898Z" fill="black"/>
<path d="M78.1903 75.8298C77.4503 75.8298 76.8503 76.4298 76.8503 77.1698C76.8503 77.9098 77.4503 78.5098 78.1903 78.5098C78.9303 78.5098 79.5303 77.9098 79.5303 77.1698C79.5303 76.4298 78.9303 75.8298 78.1903 75.8298Z" fill="black"/>
<path d="M73.05 75.9302C72.36 75.9302 71.81 76.4902 71.81 77.1702C71.81 77.8502 72.36 78.4102 73.05 78.4102C73.74 78.4102 74.29 77.8502 74.29 77.1702C74.29 76.4902 73.73 75.9302 73.05 75.9302Z" fill="black"/>
<path d="M67.9 76.0705C67.29 76.0705 66.8 76.5605 66.8 77.1705C66.8 77.7805 67.29 78.2705 67.9 78.2705C68.51 78.2705 69 77.7805 69 77.1705C69 76.5605 68.51 76.0705 67.9 76.0705Z" fill="black"/>
<path d="M62.7604 76.2406C62.2504 76.2406 61.8304 76.6606 61.8304 77.1706C61.8304 77.6806 62.2404 78.1006 62.7604 78.1006C63.2804 78.1006 63.6904 77.6906 63.6904 77.1706C63.6904 76.6506 63.2704 76.2406 62.7604 76.2406Z" fill="black"/>
<path d="M57.6204 76.4302C57.2104 76.4302 56.8803 76.7602 56.8803 77.1702C56.8803 77.5802 57.2104 77.9102 57.6204 77.9102C58.0304 77.9102 58.3604 77.5802 58.3604 77.1702C58.3604 76.7602 58.0304 76.4302 57.6204 76.4302Z" fill="black"/>
<path d="M52.4703 76.6095C52.1603 76.6095 51.9103 76.8595 51.9103 77.1695C51.9103 77.4795 52.1603 77.7295 52.4703 77.7295C52.7803 77.7295 53.0303 77.4795 53.0303 77.1695C53.0303 76.8595 52.7803 76.6095 52.4703 76.6095Z" fill="black"/>
<path d="M47.33 76.8C47.12 76.8 46.96 76.97 46.96 77.17C46.96 77.37 47.13 77.54 47.33 77.54C47.53 77.54 47.7 77.37 47.7 77.17C47.7 76.97 47.53 76.8 47.33 76.8Z" fill="black"/>
<path d="M42.1899 76.9404C42.0599 76.9404 41.9599 77.0404 41.9599 77.1704C41.9599 77.3004 42.0599 77.4004 42.1899 77.4004C42.3199 77.4004 42.4199 77.3004 42.4199 77.1704C42.4199 77.0404 42.3199 76.9404 42.1899 76.9404Z" fill="black"/>
<path d="M37.0504 77.0695C37.0004 77.0695 36.9504 77.1095 36.9504 77.1695C36.9504 77.2295 36.9904 77.2695 37.0504 77.2695C37.1104 77.2695 37.1504 77.2295 37.1504 77.1695C37.1504 77.1095 37.1104 77.0695 37.0504 77.0695Z" fill="black"/>
<path d="M31.8999 77.1499C31.8999 77.1499 31.8899 77.1499 31.8899 77.1599C31.8899 77.1699 31.8899 77.1699 31.8999 77.1699C31.9099 77.1699 31.9099 77.1699 31.9099 77.1599C31.9099 77.1499 31.9099 77.1499 31.8999 77.1499Z" fill="black"/>
<path d="M137.33 72.0103C137.33 72.0103 137.32 72.0103 137.32 72.0203C137.32 72.0303 137.32 72.0303 137.33 72.0303C137.34 72.0303 137.34 72.0303 137.34 72.0203C137.34 72.0103 137.34 72.0103 137.33 72.0103Z" fill="black"/>
<path d="M132.19 71.9099C132.13 71.9099 132.08 71.9599 132.08 72.0199C132.08 72.0799 132.13 72.1299 132.19 72.1299C132.25 72.1299 132.3 72.0799 132.3 72.0199C132.3 71.9599 132.25 71.9099 132.19 71.9099Z" fill="black"/>
<path d="M127.05 71.77C126.91 71.77 126.79 71.88 126.79 72.03C126.79 72.18 126.91 72.29 127.05 72.29C127.19 72.29 127.31 72.18 127.31 72.03C127.31 71.88 127.19 71.77 127.05 71.77Z" fill="black"/>
<path d="M121.9 71.58C121.66 71.58 121.46 71.78 121.46 72.02C121.46 72.26 121.66 72.46 121.9 72.46C122.14 72.46 122.34 72.26 122.34 72.02C122.34 71.78 122.14 71.58 121.9 71.58Z" fill="black"/>
<path d="M116.76 71.3802C116.41 71.3802 116.12 71.6702 116.12 72.0202C116.12 72.3702 116.41 72.6602 116.76 72.6602C117.11 72.6602 117.4 72.3702 117.4 72.0202C117.4 71.6702 117.11 71.3802 116.76 71.3802Z" fill="black"/>
<path d="M111.62 71.1404C111.13 71.1404 110.74 71.5404 110.74 72.0204C110.74 72.5004 111.14 72.9004 111.62 72.9004C112.1 72.9004 112.5 72.5004 112.5 72.0204C112.5 71.5404 112.1 71.1404 111.62 71.1404Z" fill="black"/>
<path d="M106.47 70.9002C105.85 70.9002 105.34 71.4002 105.34 72.0302C105.34 72.6602 105.84 73.1602 106.47 73.1602C107.1 73.1602 107.6 72.6602 107.6 72.0302C107.6 71.4002 107.1 70.9002 106.47 70.9002Z" fill="black"/>
<path d="M101.33 70.6604C100.573 70.6604 99.9599 71.2738 99.9599 72.0304C99.9599 72.787 100.573 73.4004 101.33 73.4004C102.087 73.4004 102.7 72.787 102.7 72.0304C102.7 71.2738 102.087 70.6604 101.33 70.6604Z" fill="black"/>
<path d="M96.1895 70.4396C95.3195 70.4396 94.6095 71.1496 94.6095 72.0196C94.6095 72.8896 95.3195 73.5996 96.1895 73.5996C97.0595 73.5996 97.7695 72.8896 97.7695 72.0196C97.7695 71.1496 97.0595 70.4396 96.1895 70.4396Z" fill="black"/>
<path d="M91.05 70.2705C90.08 70.2705 89.3 71.0605 89.3 72.0205C89.3 72.9805 90.09 73.7705 91.05 73.7705C92.01 73.7705 92.8 72.9805 92.8 72.0205C92.8 71.0605 92.01 70.2705 91.05 70.2705Z" fill="black"/>
<path d="M85.8995 70.1604C84.8668 70.1604 84.0295 70.9976 84.0295 72.0304C84.0295 73.0632 84.8668 73.9004 85.8995 73.9004C86.9323 73.9004 87.7695 73.0632 87.7695 72.0304C87.7695 70.9976 86.9323 70.1604 85.8995 70.1604Z" fill="black"/>
<path d="M80.7599 70.1097C79.7099 70.1097 78.8499 70.9697 78.8499 72.0197C78.8499 73.0697 79.7099 73.9297 80.7599 73.9297C81.8099 73.9297 82.6699 73.0697 82.6699 72.0197C82.6699 70.9697 81.8099 70.1097 80.7599 70.1097Z" fill="black"/>
<path d="M75.62 70.1701C74.6 70.1701 73.77 71.0001 73.77 72.0201C73.77 73.0401 74.6 73.8701 75.62 73.8701C76.64 73.8701 77.47 73.0401 77.47 72.0201C77.47 71.0001 76.64 70.1701 75.62 70.1701Z" fill="black"/>
<path d="M70.47 70.2998C69.5145 70.2998 68.74 71.0743 68.74 72.0298C68.74 72.9852 69.5145 73.7598 70.47 73.7598C71.4254 73.7598 72.2 72.9852 72.2 72.0298C72.2 71.0743 71.4254 70.2998 70.47 70.2998Z" fill="black"/>
<path d="M65.3299 70.4903C64.4799 70.4903 63.7899 71.1803 63.7899 72.0303C63.7899 72.8803 64.4799 73.5703 65.3299 73.5703C66.1799 73.5703 66.8699 72.8803 66.8699 72.0303C66.8699 71.1803 66.1799 70.4903 65.3299 70.4903Z" fill="black"/>
<path d="M60.1895 70.7004C59.4595 70.7004 58.8595 71.2904 58.8595 72.0304C58.8595 72.7704 59.4495 73.3604 60.1895 73.3604C60.9295 73.3604 61.5195 72.7704 61.5195 72.0304C61.5195 71.2904 60.9295 70.7004 60.1895 70.7004Z" fill="black"/>
<path d="M55.0499 70.9504C54.4534 70.9504 53.9699 71.4339 53.9699 72.0304C53.9699 72.6268 54.4534 73.1104 55.0499 73.1104C55.6463 73.1104 56.1299 72.6268 56.1299 72.0304C56.1299 71.4339 55.6463 70.9504 55.0499 70.9504Z" fill="black"/>
<path d="M49.9002 71.1804C49.4402 71.1804 49.0602 71.5604 49.0602 72.0204C49.0602 72.4804 49.4402 72.8604 49.9002 72.8604C50.3602 72.8604 50.7402 72.4804 50.7402 72.0204C50.7402 71.5604 50.3602 71.1804 49.9002 71.1804Z" fill="black"/>
<path d="M44.7599 71.4099C44.4199 71.4099 44.1499 71.6799 44.1499 72.0199C44.1499 72.3599 44.4299 72.6299 44.7599 72.6299C45.0899 72.6299 45.3699 72.3599 45.3699 72.0199C45.3699 71.6799 45.0999 71.4099 44.7599 71.4099Z" fill="black"/>
<path d="M39.6195 71.6297C39.3995 71.6297 39.2195 71.8097 39.2195 72.0297C39.2195 72.2497 39.3995 72.4297 39.6195 72.4297C39.8395 72.4297 40.0195 72.2497 40.0195 72.0297C40.0195 71.8097 39.8395 71.6297 39.6195 71.6297Z" fill="black"/>
<path d="M34.47 71.7998C34.34 71.7998 34.24 71.8998 34.24 72.0298C34.24 72.1598 34.34 72.2598 34.47 72.2598C34.6 72.2598 34.7 72.1598 34.7 72.0298C34.7 71.8998 34.6 71.7998 34.47 71.7998Z" fill="black"/>
<path d="M29.3299 71.9401C29.3299 71.9401 29.2399 71.9801 29.2399 72.0301C29.2399 72.0801 29.2799 72.1201 29.3299 72.1201C29.3799 72.1201 29.4099 72.0801 29.4099 72.0301C29.4099 71.9801 29.3699 71.9401 29.3299 71.9401Z" fill="black"/>
<path d="M24.19 72.0103C24.19 72.0103 24.18 72.0103 24.18 72.0203C24.18 72.0303 24.18 72.0303 24.19 72.0303C24.19 72.0303 24.2 72.0303 24.2 72.0203C24.2 72.0103 24.2 72.0103 24.19 72.0103Z" fill="black"/>
<path d="M139.9 66.8399C139.9 66.8399 139.86 66.8599 139.86 66.8799C139.86 66.8999 139.88 66.9199 139.9 66.9199C139.92 66.9199 139.94 66.8999 139.94 66.8799C139.94 66.8599 139.92 66.8399 139.9 66.8399Z" fill="black"/>
<path d="M134.76 66.7298C134.67 66.7298 134.6 66.7998 134.6 66.8898C134.6 66.9798 134.67 67.0498 134.76 67.0498C134.85 67.0498 134.92 66.9798 134.92 66.8898C134.92 66.7998 134.85 66.7298 134.76 66.7298Z" fill="black"/>
<path d="M129.62 66.5597C129.44 66.5597 129.29 66.7097 129.29 66.8897C129.29 67.0697 129.44 67.2197 129.62 67.2197C129.8 67.2197 129.95 67.0697 129.95 66.8897C129.95 66.7097 129.8 66.5597 129.62 66.5597Z" fill="black"/>
<path d="M124.47 66.3399C124.172 66.3399 123.93 66.5817 123.93 66.8799C123.93 67.1782 124.172 67.4199 124.47 67.4199C124.768 67.4199 125.01 67.1782 125.01 66.8799C125.01 66.5817 124.768 66.3399 124.47 66.3399Z" fill="black"/>
<path d="M119.33 66.0797C118.89 66.0797 118.53 66.4397 118.53 66.8797C118.53 67.3197 118.89 67.6797 119.33 67.6797C119.77 67.6797 120.13 67.3197 120.13 66.8797C120.13 66.4397 119.77 66.0797 119.33 66.0797Z" fill="black"/>
<path d="M114.19 65.8C113.59 65.8 113.11 66.29 113.11 66.88C113.11 67.47 113.59 67.96 114.19 67.96C114.79 67.96 115.27 67.47 115.27 66.88C115.27 66.29 114.78 65.8 114.19 65.8Z" fill="black"/>
<path d="M109.05 65.4998C108.288 65.4998 107.67 66.1176 107.67 66.8798C107.67 67.6419 108.288 68.2598 109.05 68.2598C109.812 68.2598 110.43 67.6419 110.43 66.8798C110.43 66.1176 109.812 65.4998 109.05 65.4998Z" fill="black"/>
<path d="M103.9 65.2005C102.97 65.2005 102.22 65.9505 102.22 66.8805C102.22 67.8105 102.97 68.5605 103.9 68.5605C104.83 68.5605 105.58 67.8105 105.58 66.8805C105.58 65.9505 104.83 65.2005 103.9 65.2005Z" fill="black"/>
<path d="M98.7595 64.9204C97.6695 64.9204 96.7895 65.8004 96.7895 66.8904C96.7895 67.9804 97.6695 68.8604 98.7595 68.8604C99.8495 68.8604 100.729 67.9804 100.729 66.8904C100.729 65.8004 99.8495 64.9204 98.7595 64.9204Z" fill="black"/>
<path d="M93.6198 64.6604C92.3898 64.6604 91.3998 65.6604 91.3998 66.8904C91.3998 68.1204 92.3998 69.1104 93.6198 69.1104C94.8398 69.1104 95.8398 68.1104 95.8398 66.8904C95.8398 65.6704 94.8398 64.6604 93.6198 64.6604Z" fill="black"/>
<path d="M88.4699 64.47C87.1399 64.47 86.0599 65.55 86.0599 66.88C86.0599 68.21 87.1399 69.29 88.4699 69.29C89.7999 69.29 90.8799 68.21 90.8799 66.88C90.8799 65.55 89.7999 64.47 88.4699 64.47Z" fill="black"/>
<path d="M83.33 64.4204C81.97 64.4204 80.86 65.5204 80.86 66.8904C80.8601 68.2604 81.96 69.3604 83.33 69.3604C84.7 69.3604 85.8 68.2604 85.8 66.8904C85.8 65.5204 84.7 64.4204 83.33 64.4204Z" fill="black"/>
<path d="M78.1899 64.4403C76.8399 64.4403 75.7499 65.5303 75.7499 66.8803C75.7499 68.2303 76.8399 69.3203 78.1899 69.3203C79.5399 69.3203 80.6299 68.2303 80.6299 66.8803C80.6299 65.5303 79.5399 64.4403 78.1899 64.4403Z" fill="black"/>
<path d="M73.0503 64.6104C71.7966 64.6104 70.7803 65.6267 70.7803 66.8804C70.7803 68.1341 71.7966 69.1504 73.0503 69.1504C74.304 69.1504 75.3203 68.1341 75.3203 66.8804C75.3203 65.6267 74.304 64.6104 73.0503 64.6104Z" fill="black"/>
<path d="M67.8999 64.8602C66.7799 64.8602 65.8699 65.7702 65.8699 66.8902C65.8699 68.0102 66.7799 68.9102 67.8999 68.9102C69.0199 68.9102 69.9199 68.0002 69.9199 66.8902C69.9199 65.7802 69.0099 64.8602 67.8999 64.8602Z" fill="black"/>
<path d="M62.76 65.1401C61.8 65.1401 61.02 65.9201 61.02 66.8801C61.02 67.8401 61.8 68.6201 62.76 68.6201C63.72 68.6201 64.5 67.8401 64.5 66.8801C64.5 65.9201 63.72 65.1401 62.76 65.1401Z" fill="black"/>
<path d="M57.6196 65.4403C56.8196 65.4403 56.1796 66.0903 56.1796 66.8803C56.1796 67.6703 56.8296 68.3203 57.6196 68.3203C58.4096 68.3203 59.0596 67.6703 59.0596 66.8803C59.0596 66.0903 58.4196 65.4403 57.6196 65.4403Z" fill="black"/>
<path d="M52.4704 65.7395C51.8404 65.7395 51.3304 66.2495 51.3304 66.8795C51.3304 67.5095 51.8404 68.0195 52.4704 68.0195C53.1004 68.0195 53.6104 67.5095 53.6104 66.8795C53.6104 66.2495 53.1004 65.7395 52.4704 65.7395Z" fill="black"/>
<path d="M47.3304 66.03C46.8604 66.03 46.4704 66.41 46.4704 66.89C46.4704 67.37 46.8504 67.75 47.3304 67.75C47.8104 67.75 48.1904 67.37 48.1904 66.89C48.1904 66.41 47.8104 66.03 47.3304 66.03Z" fill="black"/>
<path d="M42.19 66.2805C41.86 66.2805 41.59 66.5505 41.59 66.8805C41.59 67.2105 41.86 67.4805 42.19 67.4805C42.52 67.4805 42.79 67.2105 42.79 66.8805C42.79 66.5505 42.52 66.2805 42.19 66.2805Z" fill="black"/>
<path d="M37.0499 66.51C36.8399 66.51 36.6799 66.68 36.6799 66.88C36.6799 67.08 36.8499 67.25 37.0499 67.25C37.2499 67.25 37.4199 67.08 37.4199 66.88C37.4199 66.68 37.2499 66.51 37.0499 66.51Z" fill="black"/>
<path d="M31.8998 66.7001C31.7998 66.7001 31.7098 66.7801 31.7098 66.8901C31.7098 67.0001 31.7898 67.0801 31.8998 67.0801C32.0098 67.0801 32.0898 67.0001 32.0898 66.8901C32.0898 66.7801 32.0098 66.7001 31.8998 66.7001Z" fill="black"/>
<path d="M26.7603 66.8302C26.7603 66.8302 26.7003 66.8602 26.7003 66.8902C26.7003 66.9202 26.7303 66.9502 26.7603 66.9502C26.7903 66.9502 26.8203 66.9202 26.8203 66.8902C26.8203 66.8602 26.7903 66.8302 26.7603 66.8302Z" fill="black"/>
<path d="M137.33 61.6798C137.33 61.6798 137.27 61.7098 137.27 61.7398C137.27 61.7698 137.3 61.7998 137.33 61.7998C137.36 61.7998 137.39 61.7698 137.39 61.7398C137.39 61.7098 137.36 61.6798 137.33 61.6798Z" fill="black"/>
<path d="M132.19 61.5497C132.09 61.5497 132.01 61.6297 132.01 61.7397C132.01 61.8497 132.09 61.9297 132.19 61.9297C132.29 61.9297 132.38 61.8497 132.38 61.7397C132.38 61.6297 132.3 61.5497 132.19 61.5497Z" fill="black"/>
<path d="M127.05 61.3599C126.84 61.3599 126.67 61.5299 126.67 61.7399C126.67 61.9499 126.84 62.1299 127.05 62.1299C127.26 62.1299 127.43 61.9599 127.43 61.7399C127.43 61.5199 127.26 61.3599 127.05 61.3599Z" fill="black"/>
<path d="M121.9 61.1101C121.55 61.1101 121.27 61.3901 121.27 61.7401C121.27 62.0901 121.55 62.3701 121.9 62.3701C122.25 62.3701 122.53 62.0901 122.53 61.7401C122.53 61.3901 122.25 61.1101 121.9 61.1101Z" fill="black"/>
<path d="M116.76 60.8396C116.26 60.8396 115.86 61.2397 115.86 61.7397C115.86 62.2397 116.26 62.6396 116.76 62.6396C117.26 62.6396 117.66 62.2397 117.66 61.7397C117.66 61.2397 117.26 60.8396 116.76 60.8396Z" fill="black"/>
<path d="M111.62 60.5097C110.94 60.5097 110.39 61.0597 110.39 61.7397C110.39 62.4197 110.94 62.9697 111.62 62.9697C112.3 62.9697 112.85 62.4197 112.85 61.7397C112.85 61.0597 112.3 60.5097 111.62 60.5097Z" fill="black"/>
<path d="M106.47 60.1705C105.6 60.1705 104.9 60.8705 104.9 61.7405C104.9 62.6105 105.6 63.3105 106.47 63.3105C107.34 63.3105 108.04 62.6105 108.04 61.7405C108.04 60.8705 107.34 60.1705 106.47 60.1705Z" fill="black"/>
<path d="M101.33 59.7904C100.25 59.7904 99.3803 60.6604 99.3803 61.7404C99.3803 62.8204 100.25 63.6904 101.33 63.6904C102.41 63.6904 103.28 62.8104 103.28 61.7404C103.28 60.6704 102.41 59.7904 101.33 59.7904Z" fill="black"/>
<path d="M96.1895 59.4196C94.9095 59.4196 93.8695 60.4596 93.8695 61.7396C93.8695 63.0196 94.9095 64.0596 96.1895 64.0596C97.4695 64.0596 98.5195 63.0196 98.5195 61.7396C98.5195 60.4596 97.4795 59.4196 96.1895 59.4196Z" fill="black"/>
<path d="M91.0499 59.0896C89.5899 59.0896 88.3999 60.2797 88.3999 61.7397C88.3999 63.1997 89.5899 64.3896 91.0499 64.3896C92.5099 64.3896 93.7 63.1997 93.7 61.7397C93.7 60.2797 92.5099 59.0896 91.0499 59.0896Z" fill="black"/>
<path d="M85.9 59.0896C84.43 59.0896 83.25 60.2797 83.25 61.7397C83.25 63.1997 84.44 64.3896 85.9 64.3896C87.36 64.3896 88.55 63.1997 88.55 61.7397C88.55 60.2797 87.36 59.0896 85.9 59.0896Z" fill="black"/>
<path d="M80.7599 59.0896C79.2999 59.0896 78.1099 60.2797 78.1099 61.7397C78.1099 63.1997 79.2999 64.3896 80.7599 64.3896C82.2199 64.3896 83.4099 63.1997 83.4099 61.7397C83.4099 60.2797 82.2199 59.0896 80.7599 59.0896Z" fill="black"/>
<path d="M75.6195 59.0906C74.1595 59.0906 72.9695 60.2806 72.9695 61.7406C72.9695 63.2006 74.1595 64.3906 75.6195 64.3906C77.0795 64.3906 78.2695 63.2006 78.2695 61.7406C78.2695 60.2806 77.0795 59.0906 75.6195 59.0906Z" fill="black"/>
<path d="M70.4699 59.0896C69.0099 59.0896 67.8199 60.2797 67.8199 61.7397C67.8199 63.1997 69.0099 64.3896 70.4699 64.3896C71.9299 64.3896 73.1199 63.1997 73.1199 61.7397C73.1199 60.2797 71.9299 59.0896 70.4699 59.0896Z" fill="black"/>
<path d="M65.3299 59.2003C63.9299 59.2003 62.7899 60.3403 62.7899 61.7403C62.7899 63.1403 63.9299 64.2803 65.3299 64.2803C66.7299 64.2803 67.8699 63.1403 67.8699 61.7403C67.8699 60.3403 66.7299 59.2003 65.3299 59.2003Z" fill="black"/>
<path d="M60.1899 59.5599C58.9799 59.5599 58.0099 60.5399 58.0099 61.7399C58.0099 62.9399 58.9899 63.9199 60.1899 63.9199C61.3899 63.9199 62.3699 62.9399 62.3699 61.7399C62.3699 60.5399 61.3899 59.5599 60.1899 59.5599Z" fill="black"/>
<path d="M55.0496 59.94C54.0596 59.94 53.2496 60.74 53.2496 61.74C53.2496 62.74 54.0496 63.54 55.0496 63.54C56.0496 63.54 56.8496 62.74 56.8496 61.74C56.8496 60.74 56.0496 59.94 55.0496 59.94Z" fill="black"/>
<path d="M49.8998 60.2997C49.0998 60.2997 48.4598 60.9397 48.4598 61.7397C48.4598 62.5397 49.0998 63.1797 49.8998 63.1797C50.6998 63.1797 51.3398 62.5297 51.3398 61.7397C51.3398 60.9497 50.6998 60.2997 49.8998 60.2997Z" fill="black"/>
<path d="M44.7604 60.6398C44.1504 60.6398 43.6603 61.1298 43.6603 61.7398C43.6603 62.3498 44.1504 62.8398 44.7604 62.8398C45.3704 62.8398 45.8604 62.3498 45.8604 61.7398C45.8604 61.1298 45.3704 60.6398 44.7604 60.6398Z" fill="black"/>
<path d="M39.6199 60.9605C39.1899 60.9605 38.8399 61.3105 38.8399 61.7405C38.8399 62.1705 39.1899 62.5205 39.6199 62.5205C40.0499 62.5205 40.4099 62.1705 40.4099 61.7405C40.4099 61.3105 40.0599 60.9605 39.6199 60.9605Z" fill="black"/>
<path d="M34.47 61.2105C34.18 61.2105 33.94 61.4505 33.94 61.7405C33.94 62.0305 34.18 62.2705 34.47 62.2705C34.76 62.2705 35 62.0305 35 61.7405C35 61.4505 34.76 61.2105 34.47 61.2105Z" fill="black"/>
<path d="M29.3299 61.44C29.1599 61.44 29.0299 61.57 29.0299 61.74C29.0299 61.91 29.1599 62.04 29.3299 62.04C29.4999 62.04 29.6299 61.91 29.6299 61.74C29.6299 61.57 29.4999 61.44 29.3299 61.44Z" fill="black"/>
<path d="M24.1903 61.6101C24.1203 61.6101 24.0603 61.6701 24.0603 61.7401C24.0603 61.8101 24.1203 61.8701 24.1903 61.8701C24.2603 61.8701 24.3203 61.8101 24.3203 61.7401C24.3203 61.6701 24.2603 61.6101 24.1903 61.6101Z" fill="black"/>
<path d="M19.0501 61.7105C19.0501 61.7105 19.0201 61.7205 19.0201 61.7405C19.0201 61.7605 19.0301 61.7705 19.0501 61.7705C19.0701 61.7705 19.0801 61.7605 19.0801 61.7405C19.0801 61.7205 19.0701 61.7105 19.0501 61.7105Z" fill="black"/>
<path d="M139.9 56.5402C139.9 56.5402 139.84 56.5702 139.84 56.6002C139.84 56.6302 139.87 56.6602 139.9 56.6602C139.93 56.6602 139.96 56.6302 139.96 56.6002C139.96 56.5702 139.93 56.5402 139.9 56.5402Z" fill="black"/>
<path d="M134.76 56.3998C134.65 56.3998 134.56 56.4898 134.56 56.5998C134.56 56.7098 134.65 56.7998 134.76 56.7998C134.87 56.7998 134.96 56.7098 134.96 56.5998C134.96 56.4898 134.87 56.3998 134.76 56.3998Z" fill="black"/>
<path d="M129.62 56.2C129.4 56.2 129.22 56.38 129.22 56.6C129.22 56.82 129.4 57 129.62 57C129.84 57 130.02 56.82 130.02 56.6C130.02 56.38 129.84 56.2 129.62 56.2Z" fill="black"/>
<path d="M124.47 55.9398C124.11 55.9398 123.81 56.2298 123.81 56.5998C123.81 56.9698 124.1 57.2598 124.47 57.2598C124.84 57.2598 125.13 56.9698 125.13 56.5998C125.13 56.2298 124.84 55.9398 124.47 55.9398Z" fill="black"/>
<path d="M119.33 55.6405C118.8 55.6405 118.37 56.0705 118.37 56.6005C118.37 57.1305 118.8 57.5605 119.33 57.5605C119.86 57.5605 120.29 57.1305 120.29 56.6005C120.29 56.0705 119.86 55.6405 119.33 55.6405Z" fill="black"/>
<path d="M114.19 55.3004C113.47 55.3004 112.89 55.8804 112.89 56.6004C112.89 57.3204 113.47 57.9004 114.19 57.9004C114.91 57.9004 115.49 57.3204 115.49 56.6004C115.49 55.8804 114.91 55.3004 114.19 55.3004Z" fill="black"/>
<path d="M109.049 54.9095C108.119 54.9095 107.369 55.6595 107.369 56.5895C107.369 57.5195 108.119 58.2695 109.049 58.2695C109.979 58.2695 110.729 57.5195 110.729 56.5895C110.729 55.6595 109.979 54.9095 109.049 54.9095Z" fill="black"/>
<path d="M103.9 54.49C102.73 54.49 101.79 55.43 101.79 56.6C101.79 57.77 102.74 58.71 103.9 58.71C105.06 58.71 106.01 57.77 106.01 56.6C106.01 55.43 105.07 54.49 103.9 54.49Z" fill="black"/>
<path d="M98.7596 54.0397C97.3496 54.0397 96.2096 55.1796 96.2096 56.5896C96.2096 57.9996 97.3496 59.1396 98.7596 59.1396C100.17 59.1396 101.31 57.9996 101.31 56.5896C101.31 55.1796 100.17 54.0397 98.7596 54.0397Z" fill="black"/>
<path d="M93.6195 53.9402C92.1595 53.9402 90.9695 55.1302 90.9695 56.5902C90.9695 58.0502 92.1595 59.2402 93.6195 59.2402C95.0795 59.2402 96.2695 58.0502 96.2695 56.5902C96.2695 55.1302 95.0795 53.9402 93.6195 53.9402Z" fill="black"/>
<path d="M88.4699 53.9402C87.0099 53.9402 85.8199 55.1302 85.8199 56.5902C85.8199 58.0502 87.0099 59.2402 88.4699 59.2402C89.9299 59.2402 91.1199 58.0502 91.1199 56.5902C91.1199 55.1302 89.9299 53.9402 88.4699 53.9402Z" fill="black"/>
<path d="M83.3295 53.9402C81.8595 53.9402 80.6795 55.1302 80.6795 56.5902C80.6795 58.0502 81.8695 59.2402 83.3295 59.2402C84.7895 59.2402 85.9795 58.0502 85.9795 56.5902C85.9795 55.1302 84.7895 53.9402 83.3295 53.9402Z" fill="black"/>
<path d="M78.1898 53.9402C76.7298 53.9402 75.5398 55.1302 75.5398 56.5902C75.5398 58.0502 76.7298 59.2402 78.1898 59.2402C79.6498 59.2402 80.8398 58.0502 80.8398 56.5902C80.8398 55.1302 79.6498 53.9402 78.1898 53.9402Z" fill="black"/>
<path d="M73.0499 53.9402C71.5899 53.9402 70.4 55.1302 70.4 56.5902C70.4 58.0502 71.5899 59.2402 73.0499 59.2402C74.5099 59.2402 75.7 58.0502 75.7 56.5902C75.7 55.1302 74.5099 53.9402 73.0499 53.9402Z" fill="black"/>
<path d="M67.9001 53.9402C66.4301 53.9402 65.2501 55.1302 65.2501 56.5902C65.2501 58.0502 66.4401 59.2402 67.9001 59.2402C69.3601 59.2402 70.55 58.0502 70.55 56.5902C70.55 55.1302 69.3601 53.9402 67.9001 53.9402Z" fill="black"/>
<path d="M62.7596 54.0397C61.3496 54.0397 60.2096 55.1796 60.2096 56.5896C60.2096 57.9996 61.3496 59.1396 62.7596 59.1396C64.1696 59.1396 65.3096 57.9996 65.3096 56.5896C65.3096 55.1796 64.1696 54.0397 62.7596 54.0397Z" fill="black"/>
<path d="M57.6195 54.49C56.4495 54.49 55.5095 55.43 55.5095 56.6C55.5095 57.77 56.4495 58.71 57.6195 58.71C58.7895 58.71 59.7295 57.77 59.7295 56.6C59.7295 55.43 58.7795 54.49 57.6195 54.49Z" fill="black"/>
<path d="M52.4699 54.8998C51.5299 54.8998 50.7699 55.6598 50.7699 56.5998C50.7699 57.5398 51.5299 58.2998 52.4699 58.2998C53.4099 58.2998 54.1699 57.5398 54.1699 56.5998C54.1699 55.6598 53.4099 54.8998 52.4699 54.8998Z" fill="black"/>
<path d="M47.3299 55.3004C46.6099 55.3004 46.0299 55.8804 46.0299 56.6004C46.0299 57.3204 46.6099 57.9004 47.3299 57.9004C48.0499 57.9004 48.6299 57.3204 48.6299 56.6004C48.6299 55.8804 48.0499 55.3004 47.3299 55.3004Z" fill="black"/>
<path d="M42.1904 55.6405C41.6604 55.6405 41.2304 56.0705 41.2304 56.6005C41.2304 57.1305 41.6604 57.5605 42.1904 57.5605C42.7204 57.5605 43.1504 57.1305 43.1504 56.6005C43.1504 56.0705 42.7204 55.6405 42.1904 55.6405Z" fill="black"/>
<path d="M37.05 55.9398C36.69 55.9398 36.39 56.2298 36.39 56.5998C36.39 56.9698 36.68 57.2598 37.05 57.2598C37.42 57.2598 37.71 56.9698 37.71 56.5998C37.71 56.2298 37.42 55.9398 37.05 55.9398Z" fill="black"/>
<path d="M31.9001 56.2C31.6801 56.2 31.5001 56.38 31.5001 56.6C31.5001 56.82 31.6801 57 31.9001 57C32.1201 57 32.3 56.82 32.3 56.6C32.3 56.38 32.1201 56.2 31.9001 56.2Z" fill="black"/>
<path d="M26.76 56.3998C26.65 56.3998 26.56 56.4898 26.56 56.5998C26.56 56.7098 26.65 56.7998 26.76 56.7998C26.87 56.7998 26.96 56.7098 26.96 56.5998C26.96 56.4898 26.87 56.3998 26.76 56.3998Z" fill="black"/>
<path d="M21.6197 56.5402C21.6197 56.5402 21.5597 56.5702 21.5597 56.6002C21.5597 56.6302 21.5897 56.6602 21.6197 56.6602C21.6497 56.6602 21.6797 56.6302 21.6797 56.6002C21.6797 56.5702 21.6497 56.5402 21.6197 56.5402Z" fill="black"/>
<path d="M137.33 51.4005C137.33 51.4005 137.27 51.4305 137.27 51.4605C137.27 51.4905 137.3 51.5205 137.33 51.5205C137.36 51.5205 137.39 51.4905 137.39 51.4605C137.39 51.4305 137.36 51.4005 137.33 51.4005Z" fill="black"/>
<path d="M132.19 51.2704C132.09 51.2704 132.01 51.3504 132.01 51.4604C132.01 51.5704 132.09 51.6504 132.19 51.6504C132.29 51.6504 132.38 51.5704 132.38 51.4604C132.38 51.3504 132.3 51.2704 132.19 51.2704Z" fill="black"/>
<path d="M127.05 51.0706C126.84 51.0706 126.67 51.2406 126.67 51.4606C126.67 51.6806 126.84 51.8506 127.05 51.8506C127.26 51.8506 127.43 51.6806 127.43 51.4606C127.43 51.2406 127.26 51.0706 127.05 51.0706Z" fill="black"/>
<path d="M121.9 50.8098C121.547 50.8098 121.26 51.0964 121.26 51.4498C121.26 51.8033 121.547 52.0898 121.9 52.0898C122.254 52.0898 122.54 51.8033 122.54 51.4498C122.54 51.0964 122.254 50.8098 121.9 50.8098Z" fill="black"/>
<path d="M116.76 50.5097C116.24 50.5097 115.82 50.9296 115.82 51.4496C115.82 51.9696 116.24 52.3896 116.76 52.3896C117.28 52.3896 117.7 51.9696 117.7 51.4496C117.7 50.9296 117.28 50.5097 116.76 50.5097Z" fill="black"/>
<path d="M111.62 50.1598C110.9 50.1598 110.32 50.7398 110.32 51.4598C110.32 52.1798 110.9 52.7598 111.62 52.7598C112.34 52.7598 112.92 52.1798 112.92 51.4598C112.92 50.7398 112.34 50.1598 111.62 50.1598Z" fill="black"/>
<path d="M106.47 49.7699C105.543 49.7699 104.79 50.522 104.79 51.4499C104.79 52.3777 105.543 53.1299 106.47 53.1299C107.398 53.1299 108.15 52.3777 108.15 51.4499C108.15 50.522 107.398 49.7699 106.47 49.7699Z" fill="black"/>
<path d="M101.33 49.3303C100.159 49.3303 99.2099 50.2795 99.2099 51.4503C99.2099 52.6212 100.159 53.5703 101.33 53.5703C102.501 53.5703 103.45 52.6212 103.45 51.4503C103.45 50.2795 102.501 49.3303 101.33 49.3303Z" fill="black"/>
<path d="M96.19 48.8405C94.75 48.8405 93.58 50.0105 93.58 51.4505C93.58 52.8905 94.75 54.0605 96.19 54.0605C97.63 54.0605 98.8 52.8905 98.8 51.4505C98.8 50.0105 97.63 48.8405 96.19 48.8405Z" fill="black"/>
<path d="M91.0499 48.7996C89.5899 48.7996 88.3999 49.9896 88.3999 51.4496C88.3999 52.9096 89.5899 54.0996 91.0499 54.0996C92.5099 54.0996 93.7 52.9096 93.7 51.4496C93.7 49.9896 92.5099 48.7996 91.0499 48.7996Z" fill="black"/>
<path d="M85.9 48.7996C84.43 48.7996 83.25 49.9896 83.25 51.4496C83.25 52.9096 84.44 54.0996 85.9 54.0996C87.36 54.0996 88.55 52.9096 88.55 51.4496C88.55 49.9896 87.36 48.7996 85.9 48.7996Z" fill="black"/>
<path d="M80.7599 48.7996C79.2999 48.7996 78.1099 49.9896 78.1099 51.4496C78.1099 52.9096 79.2999 54.0996 80.7599 54.0996C82.2199 54.0996 83.4099 52.9096 83.4099 51.4496C83.4099 49.9896 82.2199 48.7996 80.7599 48.7996Z" fill="black"/>
<path d="M75.6195 48.8006C74.1595 48.8006 72.9695 49.9906 72.9695 51.4506C72.9695 52.9106 74.1595 54.1006 75.6195 54.1006C77.0795 54.1006 78.2695 52.9106 78.2695 51.4506C78.2695 49.9906 77.0795 48.8006 75.6195 48.8006Z" fill="black"/>
<path d="M70.4699 48.7996C69.0099 48.7996 67.8199 49.9896 67.8199 51.4496C67.8199 52.9096 69.0099 54.0996 70.4699 54.0996C71.9299 54.0996 73.1199 52.9096 73.1199 51.4496C73.1199 49.9896 71.9299 48.7996 70.4699 48.7996Z" fill="black"/>
<path d="M65.3295 48.7996C63.8595 48.7996 62.6795 49.9896 62.6795 51.4496C62.6795 52.9096 63.8695 54.0996 65.3295 54.0996C66.7895 54.0996 67.9795 52.9096 67.9795 51.4496C67.9795 49.9896 66.7895 48.7996 65.3295 48.7996Z" fill="black"/>
<path d="M60.1898 48.7996C58.7298 48.7996 57.5398 49.9896 57.5398 51.4496C57.5398 52.9096 58.7298 54.0996 60.1898 54.0996C61.6498 54.0996 62.8398 52.9096 62.8398 51.4496C62.8398 49.9896 61.6498 48.7996 60.1898 48.7996Z" fill="black"/>
<path d="M55.0503 49.1398C53.7703 49.1398 52.7403 50.1698 52.7403 51.4498C52.7403 52.7298 53.7703 53.7598 55.0503 53.7598C56.3303 53.7598 57.3604 52.7298 57.3604 51.4498C57.3604 50.1698 56.3303 49.1398 55.0503 49.1398Z" fill="black"/>
<path d="M49.9 49.5998C48.88 49.5998 48.05 50.4298 48.05 51.4498C48.05 52.4698 48.88 53.2998 49.9 53.2998C50.92 53.2998 51.75 52.4698 51.75 51.4498C51.75 50.4298 50.92 49.5998 49.9 49.5998Z" fill="black"/>
<path d="M44.7602 50.0106C43.9702 50.0106 43.3202 50.6606 43.3202 51.4506C43.3202 52.2406 43.9602 52.8906 44.7602 52.8906C45.5602 52.8906 46.2002 52.2406 46.2002 51.4506C46.2002 50.6606 45.5502 50.0106 44.7602 50.0106Z" fill="black"/>
<path d="M39.6204 50.3805C39.0304 50.3805 38.5504 50.8605 38.5504 51.4505C38.5504 52.0405 39.0304 52.5205 39.6204 52.5205C40.2104 52.5205 40.6904 52.0405 40.6904 51.4505C40.6904 50.8605 40.2104 50.3805 39.6204 50.3805Z" fill="black"/>
<path d="M34.4695 50.6997C34.0495 50.6997 33.7095 51.0397 33.7095 51.4597C33.7095 51.8797 34.0495 52.2197 34.4695 52.2197C34.8895 52.2197 35.2295 51.8797 35.2295 51.4597C35.2295 51.0397 34.8895 50.6997 34.4695 50.6997Z" fill="black"/>
<path d="M29.3301 50.9799C29.0705 50.9799 28.8601 51.1903 28.8601 51.4499C28.8601 51.7095 29.0705 51.9199 29.3301 51.9199C29.5896 51.9199 29.8 51.7095 29.8 51.4499C29.8 51.1903 29.5896 50.9799 29.3301 50.9799Z" fill="black"/>
<path d="M24.1902 51.1997C24.0502 51.1997 23.9302 51.3197 23.9302 51.4597C23.9302 51.5997 24.0502 51.7197 24.1902 51.7197C24.3302 51.7197 24.4502 51.5997 24.4502 51.4597C24.4502 51.3197 24.3402 51.1997 24.1902 51.1997Z" fill="black"/>
<path d="M19.0504 51.3498C18.9952 51.3498 18.9504 51.3946 18.9504 51.4498C18.9504 51.505 18.9952 51.5498 19.0504 51.5498C19.1056 51.5498 19.1504 51.505 19.1504 51.4498C19.1504 51.3946 19.1056 51.3498 19.0504 51.3498Z" fill="black"/>
<path d="M13.8999 51.44C13.8999 51.44 13.8899 51.44 13.8899 51.45C13.8899 51.46 13.8899 51.46 13.8999 51.46C13.9099 51.46 13.9099 51.46 13.9099 51.45C13.9099 51.44 13.9099 51.44 13.8999 51.44Z" fill="black"/>
<path d="M139.9 46.2798C139.9 46.2798 139.87 46.2898 139.87 46.3098C139.87 46.3298 139.88 46.3398 139.9 46.3398C139.92 46.3398 139.93 46.3298 139.93 46.3098C139.93 46.2898 139.92 46.2798 139.9 46.2798Z" fill="black"/>
<path d="M134.76 46.1702C134.68 46.1702 134.62 46.2302 134.62 46.3102C134.62 46.3902 134.68 46.4502 134.76 46.4502C134.84 46.4502 134.9 46.3902 134.9 46.3102C134.9 46.2302 134.84 46.1702 134.76 46.1702Z" fill="black"/>
<path d="M129.62 45.9796C129.44 45.9796 129.29 46.1297 129.29 46.3097C129.29 46.4897 129.44 46.6396 129.62 46.6396C129.8 46.6396 129.95 46.4897 129.95 46.3097C129.95 46.1297 129.8 45.9796 129.62 45.9796Z" fill="black"/>
<path d="M124.47 45.7399C124.15 45.7399 123.9 45.9999 123.9 46.3099C123.9 46.6199 124.15 46.8799 124.47 46.8799C124.79 46.8799 125.04 46.6199 125.04 46.3099C125.04 45.9999 124.78 45.7399 124.47 45.7399Z" fill="black"/>
<path d="M119.33 45.4607C118.86 45.4607 118.47 45.8407 118.47 46.3207C118.47 46.8007 118.85 47.1807 119.33 47.1807C119.81 47.1807 120.19 46.8007 120.19 46.3207C120.19 45.8407 119.81 45.4607 119.33 45.4607Z" fill="black"/>
<path d="M114.19 45.1098C113.53 45.1098 112.99 45.6498 112.99 46.3098C112.99 46.9698 113.53 47.5098 114.19 47.5098C114.85 47.5098 115.39 46.9698 115.39 46.3098C115.39 45.6498 114.85 45.1098 114.19 45.1098Z" fill="black"/>
<path d="M109.05 44.7399C108.18 44.7399 107.48 45.4399 107.48 46.3099C107.48 47.1799 108.18 47.8799 109.05 47.8799C109.92 47.8799 110.62 47.1799 110.62 46.3099C110.62 45.4399 109.92 44.7399 109.05 44.7399Z" fill="black"/>
<path d="M103.9 44.3203C102.8 44.3203 101.9 45.2103 101.9 46.3203C101.9 47.4303 102.79 48.3203 103.9 48.3203C105.01 48.3203 105.9 47.4303 105.9 46.3203C105.9 45.2103 105.01 44.3203 103.9 44.3203Z" fill="black"/>
<path d="M98.76 43.8598C97.41 43.8598 96.31 44.9598 96.31 46.3098C96.31 47.6598 97.41 48.7598 98.76 48.7598C100.11 48.7598 101.21 47.6598 101.21 46.3098C101.21 44.9598 100.11 43.8598 98.76 43.8598Z" fill="black"/>
<path d="M93.6195 43.66C92.1595 43.66 90.9695 44.85 90.9695 46.31C90.9695 47.77 92.1595 48.96 93.6195 48.96C95.0795 48.96 96.2695 47.77 96.2695 46.31C96.2695 44.85 95.0795 43.66 93.6195 43.66Z" fill="black"/>
<path d="M88.4699 43.66C87.0099 43.66 85.8199 44.85 85.8199 46.31C85.8199 47.77 87.0099 48.96 88.4699 48.96C89.9299 48.96 91.1199 47.77 91.1199 46.31C91.1199 44.85 89.9299 43.66 88.4699 43.66Z" fill="black"/>
<path d="M83.3295 43.66C81.8595 43.66 80.6795 44.85 80.6795 46.31C80.6795 47.77 81.8695 48.96 83.3295 48.96C84.7895 48.96 85.9795 47.77 85.9795 46.31C85.9795 44.85 84.7895 43.66 83.3295 43.66Z" fill="black"/>
<path d="M78.1898 43.66C76.7298 43.66 75.5398 44.85 75.5398 46.31C75.5398 47.77 76.7298 48.96 78.1898 48.96C79.6498 48.96 80.8398 47.77 80.8398 46.31C80.8398 44.85 79.6498 43.66 78.1898 43.66Z" fill="black"/>
<path d="M73.0502 43.66C71.5902 43.66 70.4002 44.85 70.4002 46.31C70.4002 47.77 71.5902 48.96 73.0502 48.96C74.5102 48.96 75.7002 47.77 75.7002 46.31C75.7002 44.85 74.5102 43.66 73.0502 43.66Z" fill="black"/>
<path d="M67.9001 43.66C66.4301 43.66 65.2501 44.85 65.2501 46.31C65.2501 47.77 66.4401 48.96 67.9001 48.96C69.3601 48.96 70.55 47.77 70.55 46.31C70.55 44.85 69.3601 43.66 67.9001 43.66Z" fill="black"/>
<path d="M62.7599 43.66C61.2999 43.66 60.1099 44.85 60.1099 46.31C60.1099 47.77 61.2999 48.96 62.7599 48.96C64.2199 48.96 65.4099 47.77 65.4099 46.31C65.4099 44.85 64.2199 43.66 62.7599 43.66Z" fill="black"/>
<path d="M57.6202 43.9397C56.3102 43.9397 55.2502 44.9997 55.2502 46.3097C55.2502 47.6197 56.3102 48.6797 57.6202 48.6797C58.9302 48.6797 59.9902 47.6197 59.9902 46.3097C59.9902 44.9997 58.9302 43.9397 57.6202 43.9397Z" fill="black"/>
<path d="M52.4699 44.3997C51.4099 44.3997 50.5599 45.2597 50.5599 46.3097C50.5599 47.3597 51.4199 48.2197 52.4699 48.2197C53.5199 48.2197 54.3799 47.3597 54.3799 46.3097C54.3799 45.2597 53.5199 44.3997 52.4699 44.3997Z" fill="black"/>
<path d="M47.3301 44.8105C46.5001 44.8105 45.8301 45.4805 45.8301 46.3105C45.8301 47.1405 46.5001 47.8105 47.3301 47.8105C48.1601 47.8105 48.8301 47.1405 48.8301 46.3105C48.8301 45.4805 48.1601 44.8105 47.3301 44.8105Z" fill="black"/>
<path d="M42.1903 45.1902C41.5703 45.1902 41.0603 45.6902 41.0603 46.3202C41.0603 46.9502 41.5603 47.4502 42.1903 47.4502C42.8203 47.4502 43.3203 46.9502 43.3203 46.3202C43.3203 45.6902 42.8203 45.1902 42.1903 45.1902Z" fill="black"/>
<path d="M37.0496 45.5104C36.6096 45.5104 36.2496 45.8704 36.2496 46.3104C36.2496 46.7504 36.6096 47.1104 37.0496 47.1104C37.4896 47.1104 37.8496 46.7504 37.8496 46.3104C37.8496 45.8704 37.4896 45.5104 37.0496 45.5104Z" fill="black"/>
<path d="M31.8999 45.8003C31.6199 45.8003 31.3899 46.0303 31.3899 46.3103C31.3899 46.5903 31.6199 46.8203 31.8999 46.8203C32.1799 46.8203 32.4099 46.5903 32.4099 46.3103C32.4099 46.0303 32.1799 45.8003 31.8999 45.8003Z" fill="black"/>
<path d="M26.7601 46.0304C26.6001 46.0304 26.4701 46.1604 26.4701 46.3204C26.4701 46.4804 26.6001 46.6104 26.7601 46.6104C26.9201 46.6104 27.05 46.4804 27.05 46.3204C27.05 46.1604 26.9201 46.0304 26.7601 46.0304Z" fill="black"/>
<path d="M21.6195 46.1999C21.5595 46.1999 21.5095 46.2499 21.5095 46.3099C21.5095 46.3699 21.5595 46.4199 21.6195 46.4199C21.6795 46.4199 21.7295 46.3699 21.7295 46.3099C21.7295 46.2499 21.6795 46.1999 21.6195 46.1999Z" fill="black"/>
<path d="M16.4695 46.3003C16.4695 46.3003 16.4595 46.3003 16.4595 46.3103C16.4595 46.3103 16.4595 46.3203 16.4695 46.3203C16.4795 46.3203 16.4795 46.3203 16.4795 46.3103C16.4795 46.3103 16.4795 46.3003 16.4695 46.3003Z" fill="black"/>
<path d="M137.33 41.1499C137.33 41.1499 137.32 41.1499 137.32 41.1599C137.32 41.1699 137.32 41.1699 137.33 41.1699C137.34 41.1699 137.34 41.1699 137.34 41.1599C137.34 41.1499 137.34 41.1499 137.33 41.1499Z" fill="black"/>
<path d="M132.19 41.0705C132.14 41.0705 132.09 41.1105 132.09 41.1705C132.09 41.2305 132.14 41.2705 132.19 41.2705C132.24 41.2705 132.29 41.2305 132.29 41.1705C132.29 41.1105 132.25 41.0705 132.19 41.0705Z" fill="black"/>
<path d="M127.05 40.9107C126.91 40.9107 126.79 41.0207 126.79 41.1707C126.79 41.3207 126.91 41.4307 127.05 41.4307C127.19 41.4307 127.31 41.3107 127.31 41.1707C127.31 41.0307 127.19 40.9107 127.05 40.9107Z" fill="black"/>
<path d="M121.9 40.6996C121.64 40.6996 121.43 40.9101 121.43 41.1697C121.43 41.4292 121.64 41.6396 121.9 41.6396C122.159 41.6396 122.37 41.4292 122.37 41.1697C122.37 40.9101 122.159 40.6996 121.9 40.6996Z" fill="black"/>
<path d="M116.76 40.4404C116.36 40.4404 116.03 40.7704 116.03 41.1704C116.03 41.5704 116.36 41.9004 116.76 41.9004C117.16 41.9004 117.49 41.5704 117.49 41.1704C117.49 40.7704 117.16 40.4404 116.76 40.4404Z" fill="black"/>
<path d="M111.62 40.1402C111.05 40.1402 110.59 40.6002 110.59 41.1702C110.59 41.7402 111.05 42.2002 111.62 42.2002C112.19 42.2002 112.65 41.7402 112.65 41.1702C112.65 40.6002 112.19 40.1402 111.62 40.1402Z" fill="black"/>
<path d="M106.47 39.7898C105.71 39.7898 105.09 40.4098 105.09 41.1698C105.09 41.9298 105.71 42.5498 106.47 42.5498C107.23 42.5498 107.85 41.9298 107.85 41.1698C107.85 40.4098 107.23 39.7898 106.47 39.7898Z" fill="black"/>
<path d="M101.33 39.4102C100.36 39.4102 99.5798 40.2002 99.5798 41.1602C99.5798 42.1202 100.37 42.9102 101.33 42.9102C102.29 42.9102 103.08 42.1202 103.08 41.1602C103.08 40.2002 102.29 39.4102 101.33 39.4102Z" fill="black"/>
<path d="M96.1903 38.9998C94.9903 38.9998 94.0204 39.9698 94.0204 41.1698C94.0204 42.3698 94.9903 43.3398 96.1903 43.3398C97.3903 43.3398 98.3604 42.3698 98.3604 41.1698C98.3604 39.9698 97.3903 38.9998 96.1903 38.9998Z" fill="black"/>
<path d="M91.0499 38.6002C89.6299 38.6002 88.4799 39.7502 88.4799 41.1702C88.4799 42.5902 89.6299 43.7402 91.0499 43.7402C92.4699 43.7402 93.6199 42.5902 93.6199 41.1702C93.6199 39.7502 92.4699 38.6002 91.0499 38.6002Z" fill="black"/>
<path d="M85.9 38.5203C84.43 38.5203 83.25 39.7103 83.25 41.1703C83.25 42.6303 84.44 43.8203 85.9 43.8203C87.36 43.8203 88.55 42.6303 88.55 41.1703C88.55 39.7103 87.36 38.5203 85.9 38.5203Z" fill="black"/>
<path d="M80.7599 38.5203C79.2999 38.5203 78.1099 39.7103 78.1099 41.1703C78.1099 42.6303 79.2999 43.8203 80.7599 43.8203C82.2199 43.8203 83.4099 42.6303 83.4099 41.1703C83.4099 39.7103 82.2199 38.5203 80.7599 38.5203Z" fill="black"/>
<path d="M75.6195 38.5203C74.1595 38.5203 72.9695 39.7103 72.9695 41.1703C72.9695 42.6303 74.1595 43.8203 75.6195 43.8203C77.0795 43.8203 78.2695 42.6303 78.2695 41.1703C78.2695 39.7103 77.0795 38.5203 75.6195 38.5203Z" fill="black"/>
<path d="M70.4699 38.5203C69.0099 38.5203 67.8199 39.7103 67.8199 41.1703C67.8199 42.6303 69.0099 43.8203 70.4699 43.8203C71.9299 43.8203 73.1199 42.6303 73.1199 41.1703C73.1199 39.7103 71.9299 38.5203 70.4699 38.5203Z" fill="black"/>
<path d="M65.3295 38.5203C63.8595 38.5203 62.6795 39.7103 62.6795 41.1703C62.6795 42.6303 63.8695 43.8203 65.3295 43.8203C66.7895 43.8203 67.9795 42.6303 67.9795 41.1703C67.9795 39.7103 66.7895 38.5203 65.3295 38.5203Z" fill="black"/>
<path d="M60.1898 38.5203C58.7298 38.5203 57.5398 39.7103 57.5398 41.1703C57.5398 42.6303 58.7298 43.8203 60.1898 43.8203C61.6498 43.8203 62.8398 42.6303 62.8398 41.1703C62.8398 39.7103 61.6498 38.5203 60.1898 38.5203Z" fill="black"/>
<path d="M55.05 38.9302C53.81 38.9302 52.81 39.9302 52.81 41.1702C52.81 42.4102 53.81 43.4102 55.05 43.4102C56.29 43.4102 57.29 42.4102 57.29 41.1702C57.29 39.9302 56.29 38.9302 55.05 38.9302Z" fill="black"/>
<path d="M49.8995 39.34C48.8895 39.34 48.0695 40.16 48.0695 41.17C48.0695 42.18 48.8895 43 49.8995 43C50.9095 43 51.7295 42.18 51.7295 41.17C51.7295 40.16 50.9095 39.34 49.8995 39.34Z" fill="black"/>
<path d="M44.76 39.7104C43.96 39.7104 43.31 40.3604 43.31 41.1604C43.31 41.9604 43.96 42.6104 44.76 42.6104C45.56 42.6104 46.22 41.9604 46.22 41.1604C46.22 40.3604 45.57 39.7104 44.76 39.7104Z" fill="black"/>
<path d="M39.62 40.0705C39.01 40.0705 38.52 40.5605 38.52 41.1705C38.52 41.7805 39.01 42.2705 39.62 42.2705C40.23 42.2705 40.72 41.7805 40.72 41.1705C40.72 40.5605 40.23 40.0705 39.62 40.0705Z" fill="black"/>
<path d="M34.47 40.3804C34.04 40.3804 33.69 40.7304 33.69 41.1604C33.69 41.5904 34.04 41.9404 34.47 41.9404C34.9 41.9404 35.25 41.5904 35.25 41.1604C35.25 40.7304 34.9 40.3804 34.47 40.3804Z" fill="black"/>
<path d="M29.3298 40.6597C29.0498 40.6597 28.8198 40.8897 28.8198 41.1697C28.8198 41.4497 29.0498 41.6797 29.3298 41.6797C29.6098 41.6797 29.8398 41.4497 29.8398 41.1697C29.8398 40.8897 29.6098 40.6597 29.3298 40.6597Z" fill="black"/>
<path d="M24.1895 40.88C24.0295 40.88 23.8995 41.01 23.8995 41.17C23.8995 41.33 24.0295 41.46 24.1895 41.46C24.3495 41.46 24.4795 41.33 24.4795 41.17C24.4795 41.01 24.3495 40.88 24.1895 40.88Z" fill="black"/>
<path d="M19.0499 41.0505C18.9899 41.0505 18.9399 41.1005 18.9399 41.1605C18.9399 41.2205 18.9899 41.2705 19.0499 41.2705C19.1099 41.2705 19.1599 41.2205 19.1599 41.1605C19.1599 41.1005 19.1099 41.0505 19.0499 41.0505Z" fill="black"/>
<path d="M13.8999 41.1499C13.8999 41.1499 13.8899 41.1499 13.8899 41.1599C13.8899 41.1699 13.8899 41.1699 13.8999 41.1699C13.9099 41.1699 13.9099 41.1699 13.9099 41.1599C13.9099 41.1499 13.9099 41.1499 13.8999 41.1499Z" fill="black"/>
<path d="M134.76 35.9805C134.76 35.9805 134.72 36.0005 134.72 36.0205C134.72 36.0405 134.74 36.0605 134.76 36.0605C134.78 36.0605 134.8 36.0405 134.8 36.0205C134.8 36.0005 134.78 35.9805 134.76 35.9805Z" fill="black"/>
<path d="M129.62 35.8704C129.53 35.8704 129.46 35.9404 129.46 36.0304C129.46 36.1204 129.53 36.1904 129.62 36.1904C129.71 36.1904 129.78 36.1204 129.78 36.0304C129.78 35.9404 129.71 35.8704 129.62 35.8704Z" fill="black"/>
<path d="M124.47 35.6804C124.28 35.6804 124.13 35.8304 124.13 36.0204C124.13 36.2104 124.28 36.3604 124.47 36.3604C124.66 36.3604 124.81 36.2104 124.81 36.0204C124.81 35.8304 124.66 35.6804 124.47 35.6804Z" fill="black"/>
<path d="M119.33 35.4698C119.02 35.4698 118.77 35.7198 118.77 36.0298C118.77 36.3398 119.02 36.5898 119.33 36.5898C119.64 36.5898 119.89 36.3398 119.89 36.0298C119.89 35.7198 119.64 35.4698 119.33 35.4698Z" fill="black"/>
<path d="M114.19 35.2004C113.73 35.2004 113.36 35.5704 113.36 36.0304C113.36 36.4904 113.73 36.8604 114.19 36.8604C114.65 36.8604 115.02 36.4904 115.02 36.0304C115.02 35.5704 114.65 35.2004 114.19 35.2004Z" fill="black"/>
<path d="M109.05 34.9002C108.43 34.9002 107.92 35.4002 107.92 36.0302C107.92 36.6602 108.42 37.1602 109.05 37.1602C109.68 37.1602 110.18 36.6602 110.18 36.0302C110.18 35.4002 109.68 34.9002 109.05 34.9002Z" fill="black"/>
<path d="M103.9 34.5697C103.1 34.5697 102.44 35.2197 102.44 36.0197C102.44 36.8197 103.09 37.4697 103.9 37.4697C104.71 37.4697 105.35 36.8197 105.35 36.0197C105.35 35.2197 104.7 34.5697 103.9 34.5697Z" fill="black"/>
<path d="M98.76 34.2398C97.78 34.2398 96.98 35.0398 96.98 36.0198C96.98 36.9998 97.78 37.7998 98.76 37.7998C99.74 37.7998 100.54 36.9998 100.54 36.0198C100.54 35.0398 99.74 34.2398 98.76 34.2398Z" fill="black"/>
<path d="M93.6195 33.9206C92.4495 33.9206 91.5095 34.8606 91.5095 36.0306C91.5095 37.2006 92.4495 38.1406 93.6195 38.1406C94.7895 38.1406 95.7295 37.1906 95.7295 36.0306C95.7295 34.8706 94.7795 33.9206 93.6195 33.9206Z" fill="black"/>
<path d="M88.4699 33.6204C87.1399 33.6204 86.0599 34.7004 86.0599 36.0304C86.0599 37.3604 87.1399 38.4404 88.4699 38.4404C89.7999 38.4404 90.8799 37.3604 90.8799 36.0304C90.8799 34.7004 89.7999 33.6204 88.4699 33.6204Z" fill="black"/>
<path d="M83.33 33.3899C81.87 33.3899 80.69 34.5699 80.69 36.0299C80.69 37.4899 81.87 38.6699 83.33 38.6699C84.79 38.6699 85.97 37.4899 85.97 36.0299C85.97 34.5699 84.79 33.3899 83.33 33.3899Z" fill="black"/>
<path d="M78.1898 33.3699C76.7298 33.3699 75.5398 34.5599 75.5398 36.0199C75.5398 37.4799 76.7298 38.6699 78.1898 38.6699C79.6498 38.6699 80.8398 37.4799 80.8398 36.0199C80.8398 34.5599 79.6498 33.3699 78.1898 33.3699Z" fill="black"/>
<path d="M73.0502 33.3699C71.5902 33.3699 70.4002 34.5599 70.4002 36.0199C70.4002 37.4799 71.5902 38.6699 73.0502 38.6699C74.5102 38.6699 75.7002 37.4799 75.7002 36.0199C75.7002 34.5599 74.5102 33.3699 73.0502 33.3699Z" fill="black"/>
<path d="M67.9002 33.4801C66.4919 33.4801 65.3502 34.6218 65.3502 36.0301C65.3502 37.4384 66.4919 38.5801 67.9002 38.5801C69.3085 38.5801 70.4502 37.4384 70.4502 36.0301C70.4502 34.6218 69.3085 33.4801 67.9002 33.4801Z" fill="black"/>
<path d="M62.7596 33.7301C61.4896 33.7301 60.4596 34.7601 60.4596 36.0301C60.4596 37.3001 61.4896 38.3301 62.7596 38.3301C64.0296 38.3301 65.0596 37.3001 65.0596 36.0301C65.0596 34.7601 64.0296 33.7301 62.7596 33.7301Z" fill="black"/>
<path d="M57.6196 34.04C56.5296 34.04 55.6396 34.93 55.6396 36.02C55.6396 37.11 56.5296 38 57.6196 38C58.7096 38 59.5996 37.11 59.5996 36.02C59.5996 34.93 58.7096 34.04 57.6196 34.04Z" fill="black"/>
<path d="M52.4704 34.3899C51.5604 34.3899 50.8304 35.1199 50.8304 36.0299C50.8304 36.9399 51.5604 37.6699 52.4704 37.6699C53.3804 37.6699 54.1104 36.9399 54.1104 36.0299C54.1104 35.1199 53.3804 34.3899 52.4704 34.3899Z" fill="black"/>
<path d="M47.3297 34.7101C46.6097 34.7101 46.0196 35.3001 46.0196 36.0201C46.0196 36.7401 46.6097 37.3301 47.3297 37.3301C48.0497 37.3301 48.6396 36.7401 48.6396 36.0201C48.6396 35.3001 48.0497 34.7101 47.3297 34.7101Z" fill="black"/>
<path d="M42.1904 35.0303C41.6404 35.0303 41.1904 35.4803 41.1904 36.0303C41.1904 36.5803 41.6404 37.0303 42.1904 37.0303C42.7404 37.0303 43.1904 36.5803 43.1904 36.0303C43.1904 35.4803 42.7404 35.0303 42.1904 35.0303Z" fill="black"/>
<path d="M37.05 35.3105C36.66 35.3105 36.34 35.6305 36.34 36.0205C36.34 36.4105 36.66 36.7305 37.05 36.7305C37.44 36.7305 37.76 36.4105 37.76 36.0205C37.76 35.6305 37.44 35.3105 37.05 35.3105Z" fill="black"/>
<path d="M31.8999 35.56C31.6403 35.56 31.4299 35.7704 31.4299 36.03C31.4299 36.2896 31.6403 36.5 31.8999 36.5C32.1594 36.5 32.3699 36.2896 32.3699 36.03C32.3699 35.7704 32.1594 35.56 31.8999 35.56Z" fill="black"/>
<path d="M26.7595 35.77C26.6195 35.77 26.4995 35.88 26.4995 36.03C26.4995 36.18 26.6095 36.29 26.7595 36.29C26.9095 36.29 27.0195 36.18 27.0195 36.03C27.0195 35.88 26.9095 35.77 26.7595 35.77Z" fill="black"/>
<path d="M21.62 35.9299C21.57 35.9299 21.52 35.9699 21.52 36.0299C21.52 36.0899 21.56 36.1299 21.62 36.1299C21.68 36.1299 21.72 36.0899 21.72 36.0299C21.72 35.9699 21.68 35.9299 21.62 35.9299Z" fill="black"/>
<path d="M16.4695 36.0103C16.4695 36.0103 16.4595 36.0103 16.4595 36.0203C16.4595 36.0303 16.4595 36.0303 16.4695 36.0303C16.4795 36.0303 16.4795 36.0303 16.4795 36.0203C16.4795 36.0103 16.4795 36.0103 16.4695 36.0103Z" fill="black"/>
<path d="M127.05 30.8102C127.011 30.8102 126.98 30.8415 126.98 30.8802C126.98 30.9189 127.011 30.9502 127.05 30.9502C127.089 30.9502 127.12 30.9189 127.12 30.8802C127.12 30.8415 127.089 30.8102 127.05 30.8102Z" fill="black"/>
<path d="M121.9 30.6698C121.78 30.6698 121.69 30.7698 121.69 30.8798C121.69 30.9898 121.79 31.0898 121.9 31.0898C122.01 31.0898 122.11 30.9898 122.11 30.8798C122.11 30.7698 122.01 30.6698 121.9 30.6698Z" fill="black"/>
<path d="M116.76 30.5005C116.55 30.5005 116.38 30.6705 116.38 30.8905C116.38 31.1105 116.55 31.2705 116.76 31.2705C116.97 31.2705 117.15 31.1005 117.15 30.8905C117.15 30.6805 116.98 30.5005 116.76 30.5005Z" fill="black"/>
<path d="M111.62 30.2805C111.29 30.2805 111.02 30.5505 111.02 30.8805C111.02 31.2105 111.29 31.4805 111.62 31.4805C111.95 31.4805 112.22 31.2105 112.22 30.8805C112.22 30.5505 111.95 30.2805 111.62 30.2805Z" fill="black"/>
<path d="M106.47 30.03C106 30.03 105.61 30.41 105.61 30.89C105.61 31.37 105.99 31.75 106.47 31.75C106.95 31.75 107.33 31.37 107.33 30.89C107.33 30.41 106.95 30.03 106.47 30.03Z" fill="black"/>
<path d="M101.33 29.7702C100.71 29.7702 100.22 30.2702 100.22 30.8802C100.22 31.4902 100.72 31.9902 101.33 31.9902C101.94 31.9902 102.44 31.4902 102.44 30.8802C102.44 30.2702 101.94 29.7702 101.33 29.7702Z" fill="black"/>
<path d="M96.1903 29.4998C95.4303 29.4998 94.8103 30.1198 94.8103 30.8798C94.8103 31.6398 95.4303 32.2598 96.1903 32.2598C96.9503 32.2598 97.5703 31.6398 97.5703 30.8798C97.5703 30.1198 96.9503 29.4998 96.1903 29.4998Z" fill="black"/>
<path d="M91.0504 29.2395C90.1404 29.2395 89.4104 29.9695 89.4104 30.8795C89.4104 31.7895 90.1404 32.5195 91.0504 32.5195C91.9604 32.5195 92.6904 31.7895 92.6904 30.8795C92.6904 29.9695 91.9604 29.2395 91.0504 29.2395Z" fill="black"/>
<path d="M85.9003 28.9998C84.8603 28.9998 84.0203 29.8398 84.0203 30.8798C84.0203 31.9198 84.8603 32.7598 85.9003 32.7598C86.9403 32.7598 87.7803 31.9198 87.7803 30.8798C87.7803 29.8398 86.9403 28.9998 85.9003 28.9998Z" fill="black"/>
<path d="M80.7596 28.8297C79.6296 28.8297 78.7096 29.7497 78.7096 30.8797C78.7096 32.0097 79.6296 32.9297 80.7596 32.9297C81.8896 32.9297 82.8096 32.0097 82.8096 30.8797C82.8096 29.7497 81.8896 28.8297 80.7596 28.8297Z" fill="black"/>
<path d="M75.6195 28.7303C74.4295 28.7303 73.4695 29.6903 73.4695 30.8803C73.4695 32.0703 74.4295 33.0303 75.6195 33.0303C76.8095 33.0303 77.7695 32.0703 77.7695 30.8803C77.7695 29.6903 76.8095 28.7303 75.6195 28.7303Z" fill="black"/>
<path d="M70.4699 28.7303C69.2799 28.7303 68.3199 29.6903 68.3199 30.8803C68.3199 32.0703 69.2799 33.0303 70.4699 33.0303C71.6599 33.0303 72.6199 32.0703 72.6199 30.8803C72.6199 29.6903 71.6599 28.7303 70.4699 28.7303Z" fill="black"/>
<path d="M65.3299 28.8297C64.1977 28.8297 63.2799 29.7475 63.2799 30.8797C63.2799 32.0119 64.1977 32.9297 65.3299 32.9297C66.4621 32.9297 67.3799 32.0119 67.3799 30.8797C67.3799 29.7475 66.4621 28.8297 65.3299 28.8297Z" fill="black"/>
<path d="M60.1896 29.0198C59.1596 29.0198 58.3196 29.8598 58.3196 30.8898C58.3196 31.9198 59.1596 32.7598 60.1896 32.7598C61.2196 32.7598 62.0596 31.9198 62.0596 30.8898C62.0596 29.8598 61.2196 29.0198 60.1896 29.0198Z" fill="black"/>
<path d="M55.0504 29.2395C54.1404 29.2395 53.4104 29.9695 53.4104 30.8795C53.4104 31.7895 54.1404 32.5195 55.0504 32.5195C55.9604 32.5195 56.6904 31.7895 56.6904 30.8795C56.6904 29.9695 55.9604 29.2395 55.0504 29.2395Z" fill="black"/>
<path d="M49.9003 29.4998C49.1403 29.4998 48.5203 30.1198 48.5203 30.8798C48.5203 31.6398 49.1403 32.2598 49.9003 32.2598C50.6603 32.2598 51.2803 31.6398 51.2803 30.8798C51.2803 30.1198 50.6603 29.4998 49.9003 29.4998Z" fill="black"/>
<path d="M44.7599 29.7702C44.1499 29.7702 43.6499 30.2702 43.6499 30.8802C43.6499 31.4902 44.1499 31.9902 44.7599 31.9902C45.3699 31.9902 45.8699 31.4902 45.8699 30.8802C45.8699 30.2702 45.3699 29.7702 44.7599 29.7702Z" fill="black"/>
<path d="M39.62 30.0397C39.16 30.0397 38.78 30.4197 38.78 30.8797C38.78 31.3397 39.16 31.7197 39.62 31.7197C40.08 31.7197 40.46 31.3397 40.46 30.8797C40.46 30.4197 40.08 30.0397 39.62 30.0397Z" fill="black"/>
<path d="M34.4703 30.2805C34.1403 30.2805 33.8703 30.5505 33.8703 30.8805C33.8703 31.2105 34.1403 31.4805 34.4703 31.4805C34.8003 31.4805 35.0703 31.2105 35.0703 30.8805C35.0703 30.5505 34.8003 30.2805 34.4703 30.2805Z" fill="black"/>
<path d="M29.33 30.5005C29.12 30.5005 28.94 30.6705 28.94 30.8905C28.94 31.1105 29.11 31.2705 29.33 31.2705C29.55 31.2705 29.71 31.1005 29.71 30.8905C29.71 30.6805 29.54 30.5005 29.33 30.5005Z" fill="black"/>
<path d="M24.1897 30.6801C24.0797 30.6801 23.9896 30.7701 23.9896 30.8801C23.9896 30.9901 24.0797 31.0801 24.1897 31.0801C24.2997 31.0801 24.3896 30.9901 24.3896 30.8801C24.3896 30.7701 24.2997 30.6801 24.1897 30.6801Z" fill="black"/>
<path d="M19.0499 30.8102C19.0112 30.8102 18.9799 30.8415 18.9799 30.8802C18.9799 30.9189 19.0112 30.9502 19.0499 30.9502C19.0885 30.9502 19.1199 30.9189 19.1199 30.8802C19.1199 30.8415 19.0885 30.8102 19.0499 30.8102Z" fill="black"/>
<path d="M129.62 25.73C129.62 25.73 129.61 25.73 129.61 25.74C129.61 25.75 129.61 25.75 129.62 25.75C129.63 25.75 129.63 25.75 129.63 25.74C129.63 25.73 129.63 25.73 129.62 25.73Z" fill="black"/>
<path d="M124.47 25.6398C124.41 25.6398 124.37 25.6798 124.37 25.7398C124.37 25.7998 124.41 25.8398 124.47 25.8398C124.53 25.8398 124.57 25.7898 124.57 25.7398C124.57 25.6898 124.53 25.6398 124.47 25.6398Z" fill="black"/>
<path d="M119.33 25.5097C119.2 25.5097 119.1 25.6097 119.1 25.7397C119.1 25.8697 119.2 25.9697 119.33 25.9697C119.46 25.9697 119.56 25.8697 119.56 25.7397C119.56 25.6097 119.46 25.5097 119.33 25.5097Z" fill="black"/>
<path d="M114.19 25.3599C113.98 25.3599 113.81 25.5299 113.81 25.7399C113.81 25.9499 113.98 26.1299 114.19 26.1299C114.4 26.1299 114.58 25.9599 114.58 25.7399C114.58 25.5199 114.41 25.3599 114.19 25.3599Z" fill="black"/>
<path d="M109.05 25.1603C108.73 25.1603 108.47 25.4203 108.47 25.7403C108.47 26.0603 108.73 26.3203 109.05 26.3203C109.37 26.3203 109.63 26.0603 109.63 25.7403C109.63 25.4203 109.37 25.1603 109.05 25.1603Z" fill="black"/>
<path d="M103.9 24.9605C103.47 24.9605 103.12 25.3105 103.12 25.7405C103.12 26.1705 103.47 26.5205 103.9 26.5205C104.33 26.5205 104.68 26.1705 104.68 25.7405C104.68 25.3105 104.33 24.9605 103.9 24.9605Z" fill="black"/>
<path d="M98.76 24.7402C98.21 24.7402 97.76 25.1902 97.76 25.7402C97.76 26.2902 98.21 26.7402 98.76 26.7402C99.31 26.7402 99.76 26.2902 99.76 25.7402C99.76 25.1902 99.31 24.7402 98.76 24.7402Z" fill="black"/>
<path d="M93.6198 24.5302C92.9498 24.5302 92.4098 25.0702 92.4098 25.7402C92.4098 26.4102 92.9498 26.9502 93.6198 26.9502C94.2898 26.9502 94.8298 26.4102 94.8298 25.7402C94.8298 25.0702 94.2898 24.5302 93.6198 24.5302Z" fill="black"/>
<path d="M88.4696 24.3601C87.7096 24.3601 87.0896 24.9801 87.0896 25.7401C87.0896 26.5001 87.7096 27.1201 88.4696 27.1201C89.2296 27.1201 89.8496 26.5001 89.8496 25.7401C89.8496 24.9801 89.2296 24.3601 88.4696 24.3601Z" fill="black"/>
<path d="M83.3303 24.2095C82.4903 24.2095 81.8003 24.8895 81.8004 25.7395C81.8004 26.5895 82.4803 27.2695 83.3303 27.2695C84.1803 27.2695 84.8604 26.5895 84.8604 25.7395C84.8604 24.8895 84.1803 24.2095 83.3303 24.2095Z" fill="black"/>
<path d="M78.19 24.1398C77.31 24.1398 76.59 24.8598 76.59 25.7398C76.59 26.6198 77.3 27.3398 78.19 27.3398C79.08 27.3398 79.79 26.6298 79.79 25.7398C79.79 24.8498 79.08 24.1398 78.19 24.1398Z" fill="black"/>
<path d="M73.0499 24.1296C72.1599 24.1296 71.4399 24.8496 71.4399 25.7396C71.4399 26.6296 72.1599 27.3496 73.0499 27.3496C73.9399 27.3496 74.6599 26.6296 74.6599 25.7396C74.6599 24.8496 73.9399 24.1296 73.0499 24.1296Z" fill="black"/>
<path d="M67.9 24.1705C67.03 24.1705 66.33 24.8705 66.33 25.7405C66.33 26.6105 67.03 27.3105 67.9 27.3105C68.77 27.3105 69.47 26.6105 69.47 25.7405C69.47 24.8705 68.77 24.1705 67.9 24.1705Z" fill="black"/>
<path d="M62.7602 24.2997C61.9702 24.2997 61.3202 24.9397 61.3202 25.7397C61.3202 26.5397 61.9602 27.1797 62.7602 27.1797C63.5602 27.1797 64.2002 26.5297 64.2002 25.7397C64.2002 24.9497 63.5502 24.2997 62.7602 24.2997Z" fill="black"/>
<path d="M57.6197 24.4698C56.9197 24.4698 56.3496 25.0398 56.3496 25.7398C56.3496 26.4398 56.9197 27.0098 57.6197 27.0098C58.3197 27.0098 58.8896 26.4398 58.8896 25.7398C58.8896 25.0398 58.3197 24.4698 57.6197 24.4698Z" fill="black"/>
<path d="M52.4701 24.6603C51.8701 24.6603 51.3901 25.1503 51.3901 25.7403C51.3901 26.3303 51.8801 26.8203 52.4701 26.8203C53.0601 26.8203 53.55 26.3303 53.55 25.7403C53.55 25.1503 53.0601 24.6603 52.4701 24.6603Z" fill="black"/>
<path d="M47.3302 24.8703C46.8502 24.8703 46.4602 25.2603 46.4602 25.7403C46.4602 26.2203 46.8502 26.6104 47.3302 26.6104C47.8102 26.6104 48.2002 26.2203 48.2002 25.7403C48.2002 25.2603 47.8102 24.8703 47.3302 24.8703Z" fill="black"/>
<path d="M42.1896 25.0804C41.8296 25.0804 41.5296 25.3704 41.5296 25.7404C41.5296 26.1104 41.8196 26.4004 42.1896 26.4004C42.5596 26.4004 42.8496 26.1104 42.8496 25.7404C42.8496 25.3704 42.5596 25.0804 42.1896 25.0804Z" fill="black"/>
<path d="M37.05 25.2802C36.8 25.2802 36.59 25.4802 36.59 25.7402C36.59 26.0002 36.79 26.2002 37.05 26.2002C37.31 26.2002 37.51 26.0002 37.51 25.7402C37.51 25.4802 37.31 25.2802 37.05 25.2802Z" fill="black"/>
<path d="M31.9004 25.46C31.7404 25.46 31.6104 25.59 31.6104 25.75C31.6104 25.91 31.7404 26.04 31.9004 26.04C32.0604 26.04 32.1904 25.91 32.1904 25.75C32.1904 25.59 32.0604 25.46 31.9004 25.46Z" fill="black"/>
<path d="M26.7604 25.5999C26.6804 25.5999 26.6204 25.6599 26.6204 25.7399C26.6204 25.8199 26.6804 25.8799 26.7604 25.8799C26.8404 25.8799 26.9004 25.8199 26.9004 25.7399C26.9004 25.6599 26.8404 25.5999 26.7604 25.5999Z" fill="black"/>
<path d="M21.6199 25.7003C21.6199 25.7003 21.5799 25.7203 21.5799 25.7403C21.5799 25.7603 21.5999 25.7803 21.6199 25.7803C21.6399 25.7803 21.6599 25.7603 21.6599 25.7403C21.6599 25.7203 21.6399 25.7003 21.6199 25.7003Z" fill="black"/>
<path d="M121.9 20.5796C121.9 20.5796 121.89 20.5796 121.89 20.5896C121.89 20.5896 121.89 20.5996 121.9 20.5996C121.91 20.5996 121.91 20.5996 121.91 20.5896C121.91 20.5896 121.91 20.5796 121.9 20.5796Z" fill="black"/>
<path d="M116.76 20.5104C116.76 20.5104 116.68 20.5504 116.68 20.6004C116.68 20.6504 116.72 20.6904 116.76 20.6904C116.8 20.6904 116.85 20.6504 116.85 20.6004C116.85 20.5504 116.81 20.5104 116.76 20.5104Z" fill="black"/>
<path d="M111.62 20.3998C111.51 20.3998 111.42 20.4898 111.42 20.5998C111.42 20.7098 111.51 20.7998 111.62 20.7998C111.73 20.7998 111.82 20.7098 111.82 20.5998C111.82 20.4898 111.73 20.3998 111.62 20.3998Z" fill="black"/>
<path d="M106.47 20.2604C106.28 20.2604 106.13 20.4104 106.13 20.6004C106.13 20.7904 106.28 20.9404 106.47 20.9404C106.66 20.9404 106.81 20.7904 106.81 20.6004C106.81 20.4104 106.66 20.2604 106.47 20.2604Z" fill="black"/>
<path d="M101.33 20.0996C101.05 20.0996 100.83 20.3196 100.83 20.5996C100.83 20.8796 101.05 21.0996 101.33 21.0996C101.61 21.0996 101.83 20.8796 101.83 20.5996C101.83 20.3196 101.61 20.0996 101.33 20.0996Z" fill="black"/>
<path d="M96.1896 19.9398C95.8296 19.9398 95.5296 20.2298 95.5296 20.5998C95.5296 20.9698 95.8196 21.2598 96.1896 21.2598C96.5596 21.2598 96.8496 20.9698 96.8496 20.5998C96.8496 20.2298 96.5596 19.9398 96.1896 19.9398Z" fill="black"/>
<path d="M91.0504 19.7804C90.6003 19.7804 90.2403 20.1404 90.2403 20.5904C90.2403 21.0404 90.6004 21.4004 91.0504 21.4004C91.5004 21.4004 91.8604 21.0404 91.8604 20.5904C91.8604 20.1404 91.5004 19.7804 91.0504 19.7804Z" fill="black"/>
<path d="M85.9003 19.6396C85.3703 19.6396 84.9403 20.0696 84.9403 20.5996C84.9403 21.1296 85.3703 21.5596 85.9003 21.5596C86.4303 21.5596 86.8604 21.1296 86.8604 20.5996C86.8604 20.0696 86.4303 19.6396 85.9003 19.6396Z" fill="black"/>
<path d="M80.7603 19.5402C80.1803 19.5402 79.7103 20.0102 79.7103 20.6002C79.7103 21.1902 80.1803 21.6602 80.7603 21.6602C81.3403 21.6602 81.8203 21.1902 81.8203 20.6002C81.8203 20.0102 81.3503 19.5402 80.7603 19.5402Z" fill="black"/>
<path d="M75.62 19.4705C75 19.4705 74.49 19.9705 74.49 20.6005C74.49 21.2305 74.99 21.7305 75.62 21.7305C76.25 21.7305 76.75 21.2305 76.75 20.6005C76.75 19.9705 76.25 19.4705 75.62 19.4705Z" fill="black"/>
<path d="M70.4704 19.4602C69.8404 19.4602 69.3304 19.9702 69.3304 20.6002C69.3304 21.2302 69.8404 21.7402 70.4704 21.7402C71.1004 21.7402 71.6104 21.2302 71.6104 20.6002C71.6104 19.9702 71.1004 19.4602 70.4704 19.4602Z" fill="black"/>
<path d="M65.3304 19.4802C64.7104 19.4802 64.2204 19.9802 64.2204 20.5902C64.2204 21.2002 64.7204 21.7002 65.3304 21.7002C65.9404 21.7002 66.4404 21.2002 66.4404 20.5902C66.4404 19.9802 65.9404 19.4802 65.3304 19.4802Z" fill="black"/>
<path d="M60.1895 19.5596C59.6095 19.5596 59.1495 20.0296 59.1495 20.5996C59.1495 21.1696 59.6195 21.6396 60.1895 21.6396C60.7595 21.6396 61.2295 21.1696 61.2295 20.5996C61.2295 20.0296 60.7595 19.5596 60.1895 19.5596Z" fill="black"/>
<path d="M55.0495 19.6703C54.5395 19.6703 54.1195 20.0903 54.1195 20.6003C54.1195 21.1103 54.5395 21.5303 55.0495 21.5303C55.5595 21.5303 55.9795 21.1103 55.9795 20.6003C55.9795 20.0903 55.5695 19.6703 55.0495 19.6703Z" fill="black"/>
<path d="M49.8997 19.8101C49.4697 19.8101 49.1197 20.1601 49.1197 20.5901C49.1197 21.0201 49.4697 21.3701 49.8997 21.3701C50.3297 21.3701 50.6797 21.0201 50.6797 20.5901C50.6797 20.1601 50.3297 19.8101 49.8997 19.8101Z" fill="black"/>
<path d="M44.7599 19.9802C44.4199 19.9802 44.1499 20.2502 44.1499 20.5902C44.1499 20.9302 44.4299 21.2002 44.7599 21.2002C45.0899 21.2002 45.3699 20.9302 45.3699 20.5902C45.3699 20.2502 45.0999 19.9802 44.7599 19.9802Z" fill="black"/>
<path d="M39.6201 20.1405C39.3701 20.1405 39.1601 20.3405 39.1601 20.6005C39.1601 20.8605 39.3601 21.0605 39.6201 21.0605C39.8801 21.0605 40.0801 20.8605 40.0801 20.6005C40.0801 20.3405 39.8701 20.1405 39.6201 20.1405Z" fill="black"/>
<path d="M34.4703 20.2804C34.3003 20.2804 34.1603 20.4204 34.1603 20.5904C34.1603 20.7604 34.3003 20.9004 34.4703 20.9004C34.6403 20.9004 34.7803 20.7604 34.7803 20.5904C34.7803 20.4204 34.6403 20.2804 34.4703 20.2804Z" fill="black"/>
<path d="M29.33 20.4305C29.24 20.4305 29.16 20.5105 29.16 20.6005C29.16 20.6905 29.24 20.7705 29.33 20.7705C29.42 20.7705 29.5 20.6905 29.5 20.6005C29.5 20.5105 29.42 20.4305 29.33 20.4305Z" fill="black"/>
<path d="M24.19 20.5299C24.19 20.5299 24.12 20.5599 24.12 20.5999C24.12 20.6399 24.15 20.6699 24.19 20.6699C24.23 20.6699 24.26 20.6399 24.26 20.5999C24.26 20.5599 24.23 20.5299 24.19 20.5299Z" fill="black"/>
<path d="M114.19 15.4005C114.19 15.4005 114.13 15.4305 114.13 15.4605C114.13 15.4905 114.16 15.5205 114.19 15.5205C114.22 15.5205 114.25 15.4905 114.25 15.4605C114.25 15.4305 114.22 15.4005 114.19 15.4005Z" fill="black"/>
<path d="M109.05 15.3098C108.973 15.3098 108.91 15.3725 108.91 15.4498C108.91 15.5272 108.973 15.5898 109.05 15.5898C109.128 15.5898 109.19 15.5272 109.19 15.4498C109.19 15.3725 109.128 15.3098 109.05 15.3098Z" fill="black"/>
<path d="M103.9 15.19C103.756 15.19 103.64 15.3064 103.64 15.45C103.64 15.5936 103.756 15.71 103.9 15.71C104.044 15.71 104.16 15.5936 104.16 15.45C104.16 15.3064 104.044 15.19 103.9 15.19Z" fill="black"/>
<path d="M98.7599 15.0803C98.5599 15.0803 98.3899 15.2503 98.3899 15.4503C98.3899 15.6503 98.5599 15.8203 98.7599 15.8203C98.9599 15.8203 99.1299 15.6503 99.1299 15.4503C99.1299 15.2503 98.9599 15.0803 98.7599 15.0803Z" fill="black"/>
<path d="M93.6203 14.9697C93.3503 14.9697 93.1404 15.1897 93.1404 15.4497C93.1404 15.7097 93.3603 15.9297 93.6203 15.9297C93.8803 15.9297 94.1104 15.7097 94.1104 15.4497C94.1104 15.1897 93.8903 14.9697 93.6203 14.9697Z" fill="black"/>
<path d="M88.47 14.8703C88.15 14.8703 87.89 15.1303 87.89 15.4503C87.89 15.7703 88.15 16.0303 88.47 16.0303C88.79 16.0303 89.05 15.7703 89.05 15.4503C89.05 15.1303 88.79 14.8703 88.47 14.8703Z" fill="black"/>
<path d="M83.33 14.7801C82.96 14.7801 82.66 15.0801 82.66 15.4501C82.66 15.8201 82.96 16.1201 83.33 16.1201C83.7 16.1201 84 15.8201 84 15.4501C84 15.0801 83.7 14.7801 83.33 14.7801Z" fill="black"/>
<path d="M78.1899 14.7304C77.7899 14.7304 77.4599 15.0604 77.4599 15.4604C77.4599 15.8604 77.7899 16.1904 78.1899 16.1904C78.5899 16.1904 78.9199 15.8604 78.9199 15.4604C78.9199 15.0604 78.5899 14.7304 78.1899 14.7304Z" fill="black"/>
<path d="M73.05 14.7104C72.6413 14.7104 72.31 15.0417 72.31 15.4504C72.31 15.8591 72.6413 16.1904 73.05 16.1904C73.4587 16.1904 73.79 15.8591 73.79 15.4504C73.79 15.0417 73.4587 14.7104 73.05 14.7104Z" fill="black"/>
<path d="M67.8999 14.7304C67.4999 14.7304 67.1699 15.0604 67.1699 15.4604C67.1699 15.8604 67.4999 16.1904 67.8999 16.1904C68.2999 16.1904 68.6299 15.8604 68.6299 15.4604C68.6299 15.0604 68.2999 14.7304 67.8999 14.7304Z" fill="black"/>
<path d="M62.7602 14.7699C62.3802 14.7699 62.0802 15.0799 62.0802 15.4499C62.0802 15.8199 62.3902 16.1299 62.7602 16.1299C63.1302 16.1299 63.4502 15.8199 63.4502 15.4499C63.4502 15.0799 63.1402 14.7699 62.7602 14.7699Z" fill="black"/>
<path d="M57.62 14.8605C57.29 14.8606 57.02 15.1305 57.02 15.4605C57.02 15.7905 57.29 16.0605 57.62 16.0605C57.95 16.0605 58.22 15.7905 58.22 15.4605C58.22 15.1305 57.95 14.8605 57.62 14.8605Z" fill="black"/>
<path d="M52.47 14.9502C52.1938 14.9502 51.97 15.1741 51.97 15.4502C51.97 15.7263 52.1938 15.9502 52.47 15.9502C52.7461 15.9502 52.97 15.7263 52.97 15.4502C52.97 15.1741 52.7461 14.9502 52.47 14.9502Z" fill="black"/>
<path d="M47.33 15.0696C47.12 15.0696 46.94 15.2396 46.94 15.4596C46.94 15.6796 47.11 15.8496 47.33 15.8496C47.55 15.8496 47.71 15.6796 47.71 15.4596C47.71 15.2396 47.54 15.0696 47.33 15.0696Z" fill="black"/>
<path d="M42.19 15.1797C42.04 15.1797 41.92 15.2997 41.92 15.4497C41.92 15.5997 42.04 15.7197 42.19 15.7197C42.34 15.7197 42.46 15.5997 42.46 15.4497C42.46 15.2997 42.34 15.1797 42.19 15.1797Z" fill="black"/>
<path d="M37.05 15.3001C36.96 15.3001 36.89 15.3701 36.89 15.4601C36.89 15.5501 36.96 15.6201 37.05 15.6201C37.14 15.6201 37.21 15.5501 37.21 15.4601C37.21 15.3701 37.14 15.3001 37.05 15.3001Z" fill="black"/>
<path d="M31.9 15.3805C31.9 15.3805 31.83 15.4105 31.83 15.4505C31.83 15.4905 31.86 15.5205 31.9 15.5205C31.94 15.5205 31.97 15.4905 31.97 15.4505C31.97 15.4105 31.94 15.3805 31.9 15.3805Z" fill="black"/>
<path d="M26.7595 15.44C26.7595 15.44 26.7495 15.44 26.7495 15.45C26.7495 15.46 26.7495 15.46 26.7595 15.46C26.7595 15.46 26.7695 15.46 26.7695 15.45C26.7695 15.44 26.7695 15.44 26.7595 15.44Z" fill="black"/>
<path d="M106.47 10.2798C106.47 10.2798 106.44 10.2898 106.44 10.3098C106.44 10.3298 106.45 10.3398 106.47 10.3398C106.49 10.3398 106.5 10.3298 106.5 10.3098C106.5 10.2898 106.49 10.2798 106.47 10.2798Z" fill="black"/>
<path d="M101.33 10.2302C101.33 10.2302 101.24 10.2702 101.24 10.3202C101.24 10.3702 101.28 10.4102 101.33 10.4102C101.38 10.4102 101.41 10.3702 101.41 10.3202C101.41 10.2702 101.37 10.2302 101.33 10.2302Z" fill="black"/>
<path d="M96.1898 10.1702C96.1098 10.1702 96.0498 10.2302 96.0498 10.3102C96.0498 10.3902 96.1098 10.4502 96.1898 10.4502C96.2698 10.4502 96.3298 10.3902 96.3298 10.3102C96.3298 10.2302 96.2698 10.1702 96.1898 10.1702Z" fill="black"/>
<path d="M91.0503 10.08C90.9203 10.08 90.8203 10.18 90.8203 10.31C90.8203 10.44 90.9203 10.54 91.0503 10.54C91.1803 10.54 91.2803 10.44 91.2803 10.31C91.2803 10.18 91.1803 10.08 91.0503 10.08Z" fill="black"/>
<path d="M85.8999 10.0103C85.7299 10.0103 85.5999 10.1403 85.5999 10.3103C85.5999 10.4803 85.7299 10.6104 85.8999 10.6104C86.0699 10.6104 86.2 10.4803 86.2 10.3103C86.2 10.1403 86.0699 10.0103 85.8999 10.0103Z" fill="black"/>
<path d="M80.7599 9.95969C80.5599 9.95969 80.3999 10.1197 80.3999 10.3197C80.3999 10.5197 80.5599 10.6797 80.7599 10.6797C80.9599 10.6797 81.1199 10.5197 81.1199 10.3197C81.1199 10.1197 80.9599 9.95969 80.7599 9.95969Z" fill="black"/>
<path d="M75.6195 9.90996C75.3995 9.90996 75.2195 10.09 75.2195 10.31C75.2195 10.53 75.3995 10.71 75.6195 10.71C75.8395 10.71 76.0195 10.53 76.0195 10.31C76.0195 10.09 75.8395 9.90996 75.6195 9.90996Z" fill="black"/>
<path d="M70.4699 9.89973C70.2399 9.89973 70.0599 10.0897 70.0599 10.3097C70.0599 10.5297 70.2499 10.7197 70.4699 10.7197C70.6899 10.7197 70.8799 10.5397 70.8799 10.3097C70.8799 10.0797 70.6999 9.89973 70.4699 9.89973Z" fill="black"/>
<path d="M65.3302 9.89973C65.1002 9.89973 64.9202 10.0897 64.9202 10.3097C64.9202 10.5297 65.1102 10.7197 65.3302 10.7197C65.5502 10.7197 65.7402 10.5397 65.7402 10.3097C65.7402 10.0797 65.5602 9.89973 65.3302 9.89973Z" fill="black"/>
<path d="M60.1901 9.9302C59.9801 9.9302 59.8101 10.1002 59.8101 10.3102C59.8101 10.5202 59.9801 10.7002 60.1901 10.7002C60.4001 10.7002 60.5801 10.5302 60.5801 10.3102C60.5801 10.0902 60.4101 9.9302 60.1901 9.9302Z" fill="black"/>
<path d="M55.0499 9.97964C54.8699 9.97964 54.7199 10.1296 54.7199 10.3096C54.7199 10.4896 54.8699 10.6396 55.0499 10.6396C55.2299 10.6396 55.3799 10.4896 55.3799 10.3096C55.3799 10.1296 55.2299 9.97964 55.0499 9.97964Z" fill="black"/>
<path d="M49.8999 10.0401C49.7499 10.0401 49.6299 10.1601 49.6299 10.3101C49.6299 10.4601 49.7499 10.5801 49.8999 10.5801C50.0499 10.5801 50.1699 10.4601 50.1699 10.3101C50.1699 10.1601 50.0499 10.0401 49.8999 10.0401Z" fill="black"/>
<path d="M44.7602 10.13C44.6602 10.13 44.5802 10.21 44.5802 10.31C44.5802 10.41 44.6602 10.5 44.7602 10.5C44.8602 10.5 44.9502 10.42 44.9502 10.31C44.9502 10.2 44.8702 10.13 44.7602 10.13Z" fill="black"/>
<path d="M39.6195 10.1999C39.5595 10.1999 39.5095 10.2499 39.5095 10.3099C39.5095 10.3699 39.5595 10.4199 39.6195 10.4199C39.6795 10.4199 39.7295 10.3699 39.7295 10.3099C39.7295 10.2499 39.6795 10.1999 39.6195 10.1999Z" fill="black"/>
<path d="M34.4703 10.2599C34.4703 10.2599 34.4103 10.2899 34.4103 10.3199C34.4103 10.3499 34.4403 10.3799 34.4703 10.3799C34.5003 10.3799 34.5303 10.3499 34.5303 10.3199C34.5303 10.2899 34.5003 10.2599 34.4703 10.2599Z" fill="black"/>
<path d="M29.3298 10.3003C29.3298 10.3003 29.3198 10.3003 29.3198 10.3103C29.3198 10.3103 29.3198 10.3203 29.3298 10.3203C29.3398 10.3203 29.3398 10.3203 29.3398 10.3103C29.3398 10.3103 29.3398 10.3003 29.3298 10.3003Z" fill="black"/>
<path d="M98.7595 5.14992C98.7595 5.14992 98.7495 5.14992 98.7495 5.15992C98.7495 5.16992 98.7495 5.16992 98.7595 5.16992C98.7595 5.16992 98.7695 5.16992 98.7695 5.15992C98.7695 5.14992 98.7695 5.14992 98.7595 5.14992Z" fill="black"/>
<path d="M93.6197 5.1095C93.6197 5.1095 93.5597 5.13949 93.5597 5.16949C93.5597 5.19949 93.5897 5.22949 93.6197 5.22949C93.6497 5.22949 93.6797 5.19949 93.6797 5.16949C93.6797 5.13949 93.6497 5.1095 93.6197 5.1095Z" fill="black"/>
<path d="M88.4696 5.07977C88.4696 5.07977 88.3796 5.11977 88.3796 5.16977C88.3796 5.21977 88.4196 5.25977 88.4696 5.25977C88.5196 5.25977 88.5596 5.21977 88.5596 5.16977C88.5596 5.11977 88.5196 5.07977 88.4696 5.07977Z" fill="black"/>
<path d="M83.33 5.03981C83.26 5.03981 83.2 5.09981 83.2 5.16981C83.2 5.23981 83.26 5.2998 83.33 5.2998C83.4 5.2998 83.46 5.23981 83.46 5.16981C83.46 5.09981 83.4 5.03981 83.33 5.03981Z" fill="black"/>
<path d="M78.1896 5.01008C78.0996 5.01008 78.0296 5.08008 78.0296 5.17008C78.0296 5.26008 78.0996 5.33008 78.1896 5.33008C78.2796 5.33008 78.3496 5.26008 78.3496 5.17008C78.3496 5.08008 78.2796 5.01008 78.1896 5.01008Z" fill="black"/>
<path d="M73.05 4.99985C72.96 4.99985 72.88 5.07985 72.88 5.16985C72.88 5.25985 72.96 5.33984 73.05 5.33984C73.14 5.33984 73.22 5.25985 73.22 5.16985C73.22 5.07985 73.14 4.99985 73.05 4.99985Z" fill="black"/>
<path d="M67.9003 4.99985C67.8103 4.99985 67.7303 5.07985 67.7303 5.16985C67.7303 5.25985 67.8103 5.33984 67.9003 5.33984C67.9903 5.33984 68.0703 5.25985 68.0703 5.16985C68.0703 5.07985 67.9903 4.99985 67.9003 4.99985Z" fill="black"/>
<path d="M62.7599 5.01008C62.6699 5.01008 62.5999 5.08008 62.5999 5.17008C62.5999 5.26008 62.6699 5.33008 62.7599 5.33008C62.8499 5.33008 62.9199 5.26008 62.9199 5.17008C62.9199 5.08008 62.8499 5.01008 62.7599 5.01008Z" fill="black"/>
<path d="M57.62 5.03981C57.55 5.03981 57.49 5.09981 57.49 5.16981C57.49 5.23981 57.55 5.2998 57.62 5.2998C57.69 5.2998 57.75 5.23981 57.75 5.16981C57.75 5.09981 57.69 5.03981 57.62 5.03981Z" fill="black"/>
<path d="M52.4696 5.07977C52.4696 5.07977 52.3796 5.11977 52.3796 5.16977C52.3796 5.21977 52.4196 5.25977 52.4696 5.25977C52.5196 5.25977 52.5596 5.21977 52.5596 5.16977C52.5596 5.11977 52.5196 5.07977 52.4696 5.07977Z" fill="black"/>
<path d="M47.3297 5.11047C47.3297 5.11047 47.2696 5.14047 47.2696 5.17047C47.2696 5.20047 47.2997 5.23047 47.3297 5.23047C47.3597 5.23047 47.3896 5.20047 47.3896 5.17047C47.3896 5.14047 47.3597 5.11047 47.3297 5.11047Z" fill="black"/>
<path d="M42.1902 5.14992C42.1902 5.14992 42.1802 5.14992 42.1802 5.15992C42.1802 5.16992 42.1802 5.16992 42.1902 5.16992C42.1902 5.16992 42.2002 5.16992 42.2002 5.15992C42.2002 5.14992 42.2002 5.14992 42.1902 5.14992Z" fill="black"/>
<path d="M75.6199 0.0102692C75.6199 0.0102692 75.6099 0.0102713 75.6099 0.0202713C75.6099 0.0302713 75.6099 0.0302734 75.6199 0.0302734C75.6299 0.0302734 75.6299 0.0302713 75.6299 0.0202713C75.6299 0.0102713 75.6299 0.0102692 75.6199 0.0102692Z" fill="black"/>
<path d="M70.47 0.000549319C70.47 0.000549319 70.44 0.0105481 70.44 0.0305481C70.44 0.0505481 70.45 0.0605469 70.47 0.0605469C70.49 0.0605469 70.5 0.0505481 70.5 0.0305481C70.5 0.0105481 70.49 0.000549317 70.47 0.000549319Z" fill="black"/>
<path d="M65.3304 -0.000427243C65.3304 -0.000427243 65.3003 0.00957154 65.3003 0.0295715C65.3003 0.0495715 65.3104 0.0595703 65.3304 0.0595703C65.3504 0.0595703 65.3604 0.0495715 65.3604 0.0295715C65.3604 0.00957153 65.3504 -0.000427245 65.3304 -0.000427243Z" fill="black"/>
<path d="M60.1902 0.0102692C60.1902 0.0102692 60.1802 0.0102713 60.1802 0.0202713C60.1802 0.0302713 60.1802 0.0302734 60.1902 0.0302734C60.1902 0.0302734 60.2002 0.0302713 60.2002 0.0202713C60.2002 0.0102713 60.2002 0.0102692 60.1902 0.0102692Z" fill="black"/>
<path d="M55.0496 0.0102692C55.0496 0.0102692 55.0396 0.0102713 55.0396 0.0202713C55.0396 0.0302713 55.0396 0.0302734 55.0496 0.0302734C55.0596 0.0302734 55.0596 0.0302713 55.0596 0.0202713C55.0596 0.0102713 55.0596 0.0102692 55.0496 0.0102692Z" fill="black"/>
<path d="M120.66 14.9499L105.8 99.8799L-8.56569e-05 80.0499L34.7499 22.4999L97.5399 39.4599L120.67 14.9499L120.66 14.9499ZM99.4299 46.1799L37.5399 29.4699L9.59992 75.7399L100.94 92.8599L111.31 33.5999L99.4399 46.1799L99.4299 46.1799Z" fill="#231F20"/>
<path d="M101.93 97.8096L114.54 25.7196L97.04 44.2596L34.71 27.4296L3.37004 79.3396L101.93 97.8096Z" fill="white"/>
</g>
<defs>
<clipPath id="clip0_190_11160">
<rect width="139.96" height="99.88" fill="white" transform="translate(139.96 99.8799) rotate(180)"/>
</clipPath>
</defs>
</svg>
